<?xml version="1.0" encoding="utf-8"?>
<!-- Generator: Adobe Illustrator 21.0.0, SVG Export Plug-In . SVG Version: 6.00 Build 0)  -->
<svg version="1.1" id="Слой_1" xmlns="http://www.w3.org/2000/svg" xmlns:xlink="http://www.w3.org/1999/xlink" x="0px" y="0px"
	 viewBox="0 0 90 90" style="enable-background:new 0 0 90 90;" xml:space="preserve">
<style type="text/css">
	.st0{fill:#FFFFFF;}
	.st1{fill:#FF9001;}
</style>
<g>
	<g>
		<path class="st0" d="M83.3,52.4C81.2,50.5,80,47.8,80,45s1.2-5.5,3.3-7.4l1.8-1.7c0.5-0.5,0.7-1.2,0.4-1.8L81.3,24
			c-0.3-0.6-0.9-1-1.5-1l-2.5,0.1c-2.8,0.1-5.5-0.9-7.5-2.9s-3-4.7-2.9-7.5l0.1-2.5c0-0.7-0.4-1.3-1-1.5L55.8,4.5
			c-0.6-0.3-1.3-0.1-1.8,0.4l-1.7,1.8C50.5,8.8,47.8,10,45,10s-5.5-1.2-7.4-3.3L36,4.9c-0.5-0.5-1.2-0.7-1.8-0.4L24,8.7
			c-0.6,0.3-1,0.9-1,1.5l0.1,2.5c0.1,2.8-0.9,5.5-2.9,7.5s-4.7,3-7.5,2.9L10.3,23c-0.7,0-1.3,0.4-1.5,1L4.5,34.2
			c-0.3,0.6-0.1,1.3,0.4,1.8l1.8,1.7C8.8,39.5,10,42.2,10,45s-1.2,5.5-3.3,7.4L4.9,54c-0.5,0.5-0.7,1.2-0.4,1.8L8.7,66
			c0.3,0.6,0.9,1,1.5,1l2.5-0.1c2.8-0.1,5.5,0.9,7.5,2.9s3,4.7,2.9,7.5L23,79.7c0,0.7,0.4,1.3,1,1.5l10.2,4.2
			c0.6,0.3,1.3,0.1,1.8-0.4l1.7-1.8c1.9-2.1,4.6-3.3,7.4-3.3c2.8,0,5.5,1.2,7.4,3.3l1.7,1.8c0.3,0.3,0.7,0.5,1.2,0.5
			c0.2,0,0.4,0,0.6-0.1l10-4.1c0.6-0.3,1-0.9,1-1.5l-0.1-2.5c-0.1-2.8,0.9-5.5,2.9-7.5s4.7-3,7.5-2.9l2.5,0.1c0.7,0,1.3-0.4,1.5-1
			l4.2-10.2c0.3-0.6,0.1-1.3-0.4-1.8L83.3,52.4z M78.8,63.8l-1.3-0.1c-3.7-0.2-7.3,1.2-9.9,3.8s-4,6.2-3.8,9.9l0.1,1.3l-8.2,3.4
			l-0.9-1c-2.5-2.7-6-4.3-9.7-4.3s-7.2,1.6-9.7,4.3l-0.9,1l-8.2-3.4l0.1-1.3c0.2-3.7-1.2-7.3-3.8-9.9s-6.2-4-9.9-3.8l-1.3,0.1
			L8,55.6l1-0.9c2.7-2.5,4.3-6,4.3-9.7s-1.6-7.2-4.3-9.7l-1-0.9l3.4-8.2l1.3,0.1c3.7,0.2,7.3-1.2,9.9-3.8s4-6.2,3.8-9.9l-0.1-1.3
			l8.2-3.4l0.9,1c2.5,2.7,6,4.3,9.7,4.3s7.2-1.6,9.7-4.3l0.9-1l8.2,3.4l-0.1,1.3c-0.2,3.7,1.2,7.3,3.8,9.9c2.6,2.6,6.2,4,9.9,3.8
			l1.3-0.1l3.4,8.2l-1,0.9c-2.7,2.5-4.3,6-4.3,9.7s1.6,7.2,4.3,9.7l1,0.9L78.8,63.8z"/>
	</g>
</g>
<path class="st1" d="M47.5,65.4h-8.8V47.1h-4.9v-8.4h4.9V34c0-4.3,2.7-9.4,10.4-9.4c2.7,0,4.7,0.3,4.8,0.3l0.8,0.1l-0.2,7.9h-0.9
	c0,0-2,0-4.2,0c-1.6,0-1.9,0.4-1.9,2v3.9h7.2l-0.4,8.4h-6.8L47.5,65.4L47.5,65.4L47.5,65.4z M40.5,63.6h5.2V45.3h6.9l0.2-4.8h-7.1
	v-5.7c0-1.9,0.4-3.8,3.7-3.8c1.3,0,2.5,0,3.3,0l0.1-4.4c-0.8-0.1-2.1-0.2-3.7-0.2c-6.3,0-8.6,3.9-8.6,7.6v6.5h-4.9v4.8h4.9V63.6
	L40.5,63.6L40.5,63.6z"/>
<path class="st1" d="M47.7,65.7h-9.4V47.4h-4.9v-9h4.9V34c0-4.5,2.8-9.7,10.7-9.7c2.7,0,4.7,0.3,4.8,0.3l1.1,0.1l-0.2,8.4h-1.2
	c-0.2,0-2.1,0-4.2,0c-1.5,0-1.6,0.3-1.6,1.7v3.6H55l-0.4,9h-6.8L47.7,65.7L47.7,65.7z M38.9,65.1h8.3V46.8H54l0.4-7.8h-7.2v-4.2
	c0-1.7,0.3-2.3,2.1-2.3c2.1,0,4,0,4.2,0h0.6l0.2-7.3l-0.6-0.1c0,0-2-0.3-4.7-0.3c-3.4,0-6.1,1-7.9,3c-1.4,1.6-2.2,3.8-2.2,6.1v5H34
	v7.8h4.9C38.9,46.7,38.9,65.1,38.9,65.1z M45.9,63.9h-5.7V45.6h-4.9v-5.3h4.9V34c0-3.8,2.3-7.9,8.9-7.9c1.6,0,2.9,0.1,3.7,0.2h0.3
	l-0.1,5h-0.3c-1,0-2.2,0-3.3,0c-1.4,0-2.3,0.4-2.8,1.1C46,33,45.9,34,45.9,34.8v5.4H53l-0.3,5.3h-6.9v18.4H45.9z M40.7,63.3h4.6V45
	h6.9l0.2-4.2h-7.1v-6c0-1.9,0.5-4.1,4-4.1c1,0,2.1,0,3.1,0l0.1-3.9c-0.8-0.1-2-0.1-3.4-0.1c-4,0-8.3,1.9-8.3,7.3v6.8h-4.9V45h4.9
	L40.7,63.3L40.7,63.3z"/>
</svg>
