<?xml version="1.0" encoding="utf-8"?>
<!-- Generator: Adobe Illustrator 21.0.0, SVG Export Plug-In . SVG Version: 6.00 Build 0)  -->
<svg version="1.1" id="Слой_1" xmlns="http://www.w3.org/2000/svg" xmlns:xlink="http://www.w3.org/1999/xlink" x="0px" y="0px"
	 viewBox="0 0 90 90" style="enable-background:new 0 0 90 90;" xml:space="preserve">
<style type="text/css">
	.st0{fill:#FFFFFF;}
	.st1{fill:#FF9001;}
</style>
<g>
	<g>
		<path class="st0" d="M86.1,54.6h-1.4v-6.9c0-0.8-0.6-1.4-1.4-1.4H82v-2.7c0-0.5-0.2-0.9-0.6-1.1l-4.1-2.7
			c-0.2-0.1-0.5-0.2-0.8-0.2v-2.7c0-0.5-0.2-0.9-0.6-1.1l-4.1-2.7c-0.2-0.1-0.5-0.2-0.8-0.2h-2.7c-0.3,0-0.5,0.1-0.8,0.2l-3.4,2.2
			l-3.4-2.2c-0.2-0.2-0.5-0.2-0.8-0.2h-2.7c-0.3,0-0.5,0.1-0.8,0.2l-4.1,2.7c-0.4,0.3-0.6,0.7-0.6,1.1v2.7c-0.3,0-0.5,0.1-0.8,0.2
			L47,42.5c-0.4,0.3-0.6,0.7-0.6,1.1v2.7H45c-0.8,0-1.4,0.6-1.4,1.4v6.9h-2.7V39.5c0-0.8-0.6-1.4-1.4-1.4H24.4V16.2H45
			c0.8,0,1.4-0.6,1.4-1.4v-1.4h9l4.7,4.7v2.2c-0.4,0-0.7,0.1-1,0.4l-2.7,2.7c-0.3,0.3-0.4,0.6-0.4,1v2.7c0,0.2,0,0.4,0.1,0.6
			l1.4,2.7l2.5-1.2l-1.2-2.5V25l1.9-1.9h2.2v6.9h2.7v-6.9h2.2l1.9,1.9v1.9l-1.2,2.5l2.5,1.2l1.4-2.7c0.1-0.2,0.1-0.4,0.2-0.6v-2.7
			c0-0.4-0.1-0.7-0.4-1l-2.7-2.7c-0.3-0.3-0.6-0.4-1-0.4v-11c0-0.4-0.1-0.7-0.4-1l-5.5-5.5c-0.3-0.3-0.6-0.4-1-0.4H17.6
			c-0.8,0-1.4,0.6-1.4,1.4v23.3H6.6c-0.8,0-1.4,0.6-1.4,1.4v26H3.9c-0.8,0-1.4,0.6-1.4,1.4v5.5c0,0.8,0.6,1.4,1.4,1.4h1.4v4.1
			c0,0.8,0.6,1.4,1.4,1.4h76.8c0.8,0,1.4-0.6,1.4-1.4v-4.1h1.4c0.8,0,1.4-0.6,1.4-1.4V56C87.5,55.2,86.9,54.6,86.1,54.6z M65.6,20.3
			h-2.7v-2.7h2.7V20.3z M46.4,5.2h14.5l4.7,4.7v4.9h-4.1c-0.2,0-0.4,0.1-0.6,0.2l-3.9-3.9c-0.3-0.3-0.6-0.4-1-0.4h-9.6V5.2z
			 M24.4,5.2h19.2V8H24.4V5.2z M24.4,10.7h19.2v2.7H24.4V10.7z M82,49.1v5.5h-2.7v-5.5H82z M76.1,42.3l3.2,2.1v2H71v-2l3.2-2.1H76.1
			z M76.5,49.1v5.5h-2.7v-5.5H76.5z M65.6,37.5l3.2-2.1h1.9l3.2,2.1v2c-0.3,0-0.5,0.1-0.8,0.2L69.7,42l-3.4-2.2
			c-0.2-0.2-0.5-0.2-0.8-0.2V37.5z M71,49.1v5.5h-2.7v-5.5H71z M65.2,42.3l3.2,2.1v2h-8.2v-2l3.2-2.1H65.2z M65.6,49.1v5.5h-2.7
			v-5.5H65.6z M54.6,37.5l3.2-2.1h1.9l3.2,2.1v2c-0.3,0-0.5,0.1-0.8,0.2L58.7,42l-3.4-2.2c-0.2-0.2-0.5-0.2-0.8-0.2V37.5z
			 M60.1,49.1v5.5h-2.7v-5.5H60.1z M49.1,44.4l3.2-2.1h1.9l3.2,2.1v2h-8.2V44.4z M54.6,49.1v5.5h-2.7v-5.5H54.6z M46.4,49.1h2.7v5.5
			h-2.7V49.1z M29.9,40.9h8.2v2.7h-8.2V40.9z M29.9,46.4h8.2v2.7h-8.2V46.4z M29.9,51.9h8.2v2.7h-8.2V51.9z M19,5.2h2.7v32.9H19V5.2
			z M19,40.9h8.2v13.7H19V40.9z M8,29.9h8.2v2.7H8V29.9z M8,35.4h8.2v13.7H8V35.4z M8,51.9h8.2v2.7H8V51.9z M82,65.6H8v-2.7h74V65.6
			z M84.8,60.1H5.2v-2.7h79.5V60.1z M5.3,21c0.4,2.2,2.5,3.8,4.7,3.4c2-0.3,3.5-2,3.5-4.1c0-0.7-0.2-1.3-0.5-1.9
			c1.2-2.8,0-6-2.8-7.2c-2.8-1.2-6,0-7.2,2.8C1.8,16.5,2.8,19.6,5.3,21z M5.4,15.3c0.4-1.1,1.4-1.9,2.6-1.8c1.5,0,2.7,1.2,2.7,2.7
			c0,0.5-0.2,1.1-0.5,1.5c-0.4,0.5-0.3,1.2,0.1,1.7c0.2,0.2,0.4,0.6,0.4,0.9c0,0.8-0.6,1.4-1.4,1.4c-0.8,0-1.4-0.6-1.4-1.4
			c0,0,0-0.1,0-0.2c0.1-0.6-0.3-1.2-0.9-1.4C5.7,18.3,4.9,16.7,5.4,15.3z M78.4,71h-0.9c-1.8,0-3.6,0.7-4.8,2l-2.3,2.3
			c-0.8,0.8-1.8,1.2-2.9,1.2h-0.9c-1.1,0-2.1-0.4-2.9-1.2l-2.3-2.3c-1.3-1.3-3-2-4.8-2h-0.9c-1.8,0-3.6,0.7-4.8,2l-2.3,2.3
			c-0.8,0.8-1.8,1.2-2.9,1.2h-0.9c-1.1,0-2.1-0.4-2.9-1.2l-2.3-2.3c-1.3-1.3-3-2-4.8-2h-0.9c-1.8,0-3.6,0.7-4.8,2l-2.3,2.3
			c-0.8,0.8-1.8,1.2-2.9,1.2h-0.9c-1.1,0-2.1-0.4-2.9-1.2l-2.3-2.3c-1.3-1.3-3-2-4.8-2h-0.9c-1.8,0-3.6,0.7-4.8,2l-3.9,3.9l1.9,1.9
			L8.7,75c0.8-0.8,1.8-1.2,2.9-1.2h0.9c1.1,0,2.1,0.4,2.9,1.2l2.3,2.3c1.3,1.3,3,2,4.8,2h0.9c1.8,0,3.6-0.7,4.8-2l2.3-2.3
			c0.8-0.8,1.8-1.2,2.9-1.2h0.9c1.1,0,2.1,0.4,2.9,1.2l2.3,2.3c1.3,1.3,3,2,4.8,2h0.9c1.8,0,3.6-0.7,4.8-2l2.3-2.3
			c0.8-0.8,1.8-1.2,2.9-1.2h0.9c1.1,0,2.1,0.4,2.9,1.2l2.3,2.3c1.3,1.3,3,2,4.8,2h0.9c1.8,0,3.6-0.7,4.8-2l2.3-2.3
			c0.8-0.8,1.8-1.2,2.9-1.2h0.9c1.1,0,2.1,0.4,2.9,1.2l3.9,3.9l1.9-1.9l-3.9-3.9C81.9,71.8,80.2,71,78.4,71z"/>
	</g>
</g>
<path class="st1" d="M78.4,77.3h-0.9c-1.8,0-3.6,0.7-4.8,2l-2.3,2.3c-0.8,0.8-1.8,1.2-2.9,1.2h-0.9c-1.1,0-2.1-0.4-2.9-1.2l-2.3-2.3
	c-1.3-1.3-3-2-4.8-2h-0.9c-1.8,0-3.6,0.7-4.8,2l-2.3,2.3c-0.8,0.8-1.8,1.2-2.9,1.2h-0.9c-1.1,0-2.1-0.4-2.9-1.2l-2.3-2.3
	c-1.3-1.3-3-2-4.8-2h-0.9c-1.8,0-3.6,0.7-4.8,2l-2.3,2.3c-0.8,0.8-1.8,1.2-2.9,1.2h-0.9c-1.1,0-2.1-0.4-2.9-1.2l-2.3-2.3
	c-1.3-1.3-3-2-4.8-2h-0.9c-1.8,0-3.6,0.7-4.8,2l-3.9,3.9l1.9,1.9l3.9-3.9c0.8-0.8,1.8-1.2,2.9-1.2h0.9c1.1,0,2.1,0.4,2.9,1.2
	l2.3,2.3c1.3,1.3,3,2,4.8,2h0.9c1.8,0,3.6-0.7,4.8-2l2.3-2.3c0.8-0.8,1.8-1.2,2.9-1.2h0.9c1.1,0,2.1,0.4,2.9,1.2l2.3,2.3
	c1.3,1.3,3,2,4.8,2h0.9c1.8,0,3.6-0.7,4.8-2l2.3-2.3c0.8-0.8,1.8-1.2,2.9-1.2h0.9c1.1,0,2.1,0.4,2.9,1.2l2.3,2.3c1.3,1.3,3,2,4.8,2
	h0.9c1.8,0,3.6-0.7,4.8-2l2.3-2.3c0.8-0.8,1.8-1.2,2.9-1.2h0.9c1.1,0,2.1,0.4,2.9,1.2l3.9,3.9l1.9-1.9l-3.9-3.9
	C81.9,78,80.2,77.3,78.4,77.3z"/>
</svg>
