<?xml version="1.0" encoding="utf-8"?>
<!-- Generator: Adobe Illustrator 21.0.0, SVG Export Plug-In . SVG Version: 6.00 Build 0)  -->
<svg version="1.1" id="Слой_1" xmlns="http://www.w3.org/2000/svg" xmlns:xlink="http://www.w3.org/1999/xlink" x="0px" y="0px"
	 viewBox="0 0 90 90" style="enable-background:new 0 0 90 90;" xml:space="preserve">
<style type="text/css">
	.st0{fill-rule:evenodd;clip-rule:evenodd;fill:#FFFFFF;}
	.st1{fill-rule:evenodd;clip-rule:evenodd;fill:#FF9001;}
</style>
<g>
	<g>
		<path class="st0" d="M88.1,32c0.3-0.3,0.4-0.6,0.4-1v-8.4c0-0.8-0.6-1.4-1.4-1.4h-2.8c-0.4,0-0.7,0.1-1,0.4L74.9,30L58,46.8
			c-0.3,0.3-0.4,0.6-0.4,1V52h-1.4c-0.8,0-1.4,0.6-1.4,1.4v4.2h-2.9l0-0.1h-2.8l0,0.1H32.5l0-0.1h-2.8l0,0.1h-2.9v-7
			c0-0.8-0.6-1.4-1.4-1.4H24V8.5c0-0.8-0.6-1.4-1.4-1.4h-1.4V2.9c0-0.8-0.6-1.4-1.4-1.4h-8.4c-0.8,0-1.4,0.6-1.4,1.4v4.2H8.5
			c-0.8,0-1.4,0.6-1.4,1.4v40.7H5.7c-0.8,0-1.4,0.6-1.4,1.4v7H2.9c-0.8,0-1.4,0.6-1.4,1.4v5.6c0,0.8,0.6,1.4,1.4,1.4h4.2v15.1
			c-0.4,0.3-0.9,0.6-1.2,1l-4,4l2,2l4-4c0.8-0.8,1.9-1.2,3-1.2h1c1.1,0,2.2,0.4,3,1.2l2.3,2.3c1.3,1.3,3.1,2.1,5,2.1h1
			c1.9,0,3.6-0.7,5-2.1l2.3-2.3c0.8-0.8,1.9-1.2,3-1.2h1c1.1,0,2.2,0.4,3,1.2l2.3,2.3c1.3,1.3,3.1,2.1,5,2.1h1c1.9,0,3.6-0.7,5-2.1
			l2.3-2.3c0.8-0.8,1.9-1.2,3-1.2h1c1.1,0,2.2,0.4,3,1.2l2.3,2.3c1.3,1.3,3.1,2.1,5,2.1h1c1.9,0,3.6-0.7,5-2.1l2.3-2.3
			c0.8-0.8,1.9-1.2,3-1.2h1c1.1,0,2.2,0.4,3,1.2l4,4l2-2l-4-4c-0.4-0.4-0.8-0.7-1.2-1V66.1h4.2c0.8,0,1.4-0.6,1.4-1.4V59
			c0-0.4-0.1-0.7-0.4-1l-5.6-5.6c-0.3-0.3-0.6-0.4-1-0.4h-9.8v-3.6l5.2-5.2l6-6v5c0,0.8,0.6,1.4,1.4,1.4c0.8,0,1.4,0.6,1.4,1.4
			c0,0.8-0.6,1.4-1.4,1.4c-0.8,0-1.4-0.6-1.4-1.4h-2.8c0,2.3,1.9,4.2,4.2,4.2c2.3,0,4.2-1.9,4.2-4.2c0-1.8-1.1-3.4-2.8-4v-6.7
			L88.1,32z M60.4,49.2h8.4V52h-8.4V49.2z M21.1,11.9v7.3l-3.6-3.6L21.1,11.9z M20.6,36.6l-5,5l-5-5l5-5L20.6,36.6z M10.5,22.6l5-5
			l5,5l-5,5L10.5,22.6z M19.2,49.2h-7.3l3.6-3.6L19.2,49.2z M17.5,43.6l3.6-3.6v7.3L17.5,43.6z M17.5,29.6l3.6-3.6v7.3L17.5,29.6z
			 M12.7,4.3h5.6v2.8h-5.6V4.3z M19.2,9.9l-3.6,3.6l-3.6-3.6H19.2z M9.9,11.9l3.6,3.6l-3.6,3.6V11.9z M9.9,25.9l3.6,3.6l-3.6,3.6
			V25.9z M9.9,40l3.6,3.6l-3.6,3.6V40z M7.1,52H24v5.6H7.1V52z M15.5,81.2c-1.1-0.7-2.4-1.1-3.7-1.1h-1c-0.3,0-0.6,0-0.9,0.1v-8.5
			h5.6V81.2z M21.1,85.6c-0.8-0.2-1.5-0.6-2.1-1.1l-0.8-0.8v-12h2.8V85.6z M21.1,68.9H9.9v-2.8h11.2V68.9z M66,85.6
			c-0.8-0.2-1.5-0.6-2.1-1.1l-2.3-2.3c-1.3-1.3-3.1-2.1-5-2.1h-1c-1.9,0-3.6,0.7-5,2.1l-2.3,2.3c-0.8,0.8-1.9,1.2-3,1.2h-1
			c-1.1,0-2.2-0.4-3-1.2l-2.3-2.3c-1.3-1.3-3.1-2.1-5-2.1h-1c-1.9,0-3.6,0.7-5,2.1L26,84.5c-0.6,0.6-1.3,1-2.1,1.1V66.1H66V85.6z
			 M71.7,83.7l-0.8,0.8c-0.6,0.6-1.3,1-2.1,1.1V71.7h2.8V83.7z M80.1,80.2c-0.3,0-0.6-0.1-0.9-0.1h-1c-1.3,0-2.6,0.4-3.7,1.1v-9.5
			h5.6V80.2z M80.1,68.9H68.9v-2.8h11.2V68.9z M85.7,63.2H4.3v-2.8h81.4V63.2z M80.9,54.8l2.8,2.8H57.6v-2.8H80.9z M69.7,46.4h-7.3
			l2.8-2.8h7.3L69.7,46.4z M74.5,40.8H68l6.4-6.4V40.8z M77.3,38.8v-6.4h6.4L77.3,38.8z M79.3,29.6l5.6-5.6h0.8v5.6H79.3z
			 M61.8,18.3h12.6c3.1,0,5.6-2.6,5.5-5.7c0-3.1-2.6-5.6-5.7-5.5c-0.8-3.8-4.5-6.3-8.3-5.5c-3.3,0.7-5.6,3.5-5.6,6.9
			c0,0.5,0.1,1.1,0.2,1.6c-2.2,0.7-3.5,3-2.8,5.2C58.3,17.1,60,18.3,61.8,18.3z M61.8,12.7c0.1,0,0.3,0,0.4,0.1
			c0.7,0.2,1.5-0.2,1.8-0.9c0.1-0.4,0.1-0.8-0.1-1.2c-1.2-2-0.6-4.6,1.3-5.8c2-1.2,4.6-0.6,5.8,1.3c0.4,0.7,0.6,1.4,0.6,2.2
			c0,0,0,0.2,0,0.2c0,0.8,0.5,1.4,1.3,1.5c0.2,0,0.4,0,0.6-0.1c0.3-0.1,0.6-0.2,1-0.2c1.5,0,2.8,1.3,2.8,2.8c0,1.5-1.3,2.8-2.8,2.8
			H61.8c-0.8,0-1.4-0.6-1.4-1.4S61.1,12.7,61.8,12.7z"/>
	</g>
</g>
<g>
	<g>
		<path class="st1" d="M47.8,15.5h-1.4v-4.2c0-0.8-0.6-1.4-1.4-1.4h-2.8V7.1h-2.8v2.8h-2.8c-0.8,0-1.4,0.6-1.4,1.4v4.2h-1.4
			c-0.7,0-1.4,0.6-1.4,1.3l-2.7,40.7h2.8l0.3-5.2l16.1,2.3l0.2,2.9h2.8l-2.7-40.7C49.2,16.1,48.5,15.5,47.8,15.5z M38,12.7h5.6v2.8
			H38V12.7z M35.1,18.3h11.4l0.4,5.4l-12-2.4L35.1,18.3z M34.7,24.2L47,26.6l0.2,2.9H34.3L34.7,24.2z M34.2,32.4h13.3l0.2,3.1
			l-13.8,2.3L34.2,32.4z M33.6,40.6l14.2-2.4l0.4,5.4H33.4L33.6,40.6z M33,49.5l0.2-3.1h15.2l0.4,5.3L33,49.5z"/>
	</g>
</g>
</svg>
