<?xml version="1.0" encoding="utf-8"?>
<!-- Generator: Adobe Illustrator 21.0.0, SVG Export Plug-In . SVG Version: 6.00 Build 0)  -->
<svg version="1.1" id="Слой_1" xmlns="http://www.w3.org/2000/svg" xmlns:xlink="http://www.w3.org/1999/xlink" x="0px" y="0px"
	 viewBox="0 0 90 90" style="enable-background:new 0 0 90 90;" xml:space="preserve">
<style type="text/css">
	.st0{fill:#FF692A;}
</style>
<g>
	<g>
		<path class="st0" d="M30.7,51.6l-6.6-18.7h-4.7l8.9,24.9l0.2,0.4h4.4l8.8-24.4l0.3-0.9h-4.7L30.7,51.6z M43.8,58.2h4.6V32.8h-4.6
			V58.2z M66.5,34.7c-0.9-0.6-1.9-1.1-3.1-1.4c-1.2-0.3-2.4-0.5-3.8-0.5h-6.5v25.3h4.6v-9.5h1c1.5,0,2.9-0.2,4.1-0.5
			c1.3-0.4,2.4-0.9,3.4-1.6c1-0.7,1.7-1.6,2.3-2.6c0.6-1,0.8-2.2,0.8-3.4c0-1.3-0.3-2.4-0.8-3.4C68.1,36.2,67.4,35.4,66.5,34.7z
			 M64.4,42.2c-0.3,0.5-0.7,0.9-1.2,1.3c-0.5,0.4-1.2,0.7-1.9,0.9c-0.7,0.2-1.6,0.3-2.5,0.3h-1.1v-7.9h1.7c0.8,0,1.5,0.1,2.2,0.2
			c0.6,0.1,1.2,0.4,1.7,0.7c0.5,0.3,0.8,0.7,1.1,1.1c0.3,0.4,0.4,1,0.4,1.7C64.8,41.1,64.6,41.7,64.4,42.2z M87.1,42.4L76.9,32.1
			V17.5c0-2.4-2-4.4-4.4-4.4H57.9L47.6,2.9c-0.8-0.8-1.9-1.3-3.1-1.3c-1.2,0-2.3,0.5-3.1,1.3L31.1,13.1H16.5c-2.4,0-4.4,2-4.4,4.4
			v14.6L1.9,42.4c-1.7,1.7-1.7,4.5,0,6.2l10.3,10.3v14.6c0,2.4,2,4.4,4.4,4.4h14.6l10.3,10.3c0.8,0.8,1.9,1.3,3.1,1.3
			s2.3-0.5,3.1-1.3l10.3-10.3h14.6c2.4,0,4.4-2,4.4-4.4V58.9l10.3-10.3C88.9,46.9,88.9,44.1,87.1,42.4z M72.5,57.1v16.4H56.1
			L44.5,85L32.9,73.5H16.5V57.1L5,45.5l11.6-11.6V17.5h16.4L44.5,6l11.6,11.6h16.4v16.4L84,45.5L72.5,57.1z M44.5,16.9
			c1.2,0,2.2-1,2.2-2.2c0-1.2-1-2.2-2.2-2.2c-1.2,0-2.2,1-2.2,2.2C42.3,16,43.3,16.9,44.5,16.9z M44.5,74.1c-1.2,0-2.2,1-2.2,2.2
			c0,1.2,1,2.2,2.2,2.2c1.2,0,2.2-1,2.2-2.2C46.7,75,45.7,74.1,44.5,74.1z M22.8,26c1.2,0,2.2-1,2.2-2.2c0-1.2-1-2.2-2.2-2.2
			s-2.2,1-2.2,2.2C20.6,25,21.5,26,22.8,26z M66.2,65C65,65,64,66,64,67.2c0,1.2,1,2.2,2.2,2.2c1.2,0,2.2-1,2.2-2.2
			C68.4,66,67.5,65,66.2,65z M66.2,26c1.2,0,2.2-1,2.2-2.2c0-1.2-1-2.2-2.2-2.2c-1.2,0-2.2,1-2.2,2.2C64,25,65,26,66.2,26z M22.8,65
			c-1.2,0-2.2,1-2.2,2.2c0,1.2,1,2.2,2.2,2.2s2.2-1,2.2-2.2C25,66,24,65,22.8,65z M75.3,47.7c1.2,0,2.2-1,2.2-2.2
			c0-1.2-1-2.2-2.2-2.2c-1.2,0-2.2,1-2.2,2.2C73.1,46.7,74,47.7,75.3,47.7z M13.7,43.3c-1.2,0-2.2,1-2.2,2.2c0,1.2,1,2.2,2.2,2.2
			c1.2,0,2.2-1,2.2-2.2C15.9,44.3,15,43.3,13.7,43.3z"/>
	</g>
</g>
</svg>
