<?xml version="1.0" encoding="utf-8"?>
<!-- Generator: Adobe Illustrator 21.0.0, SVG Export Plug-In . SVG Version: 6.00 Build 0)  -->
<svg version="1.1" id="Слой_1" xmlns="http://www.w3.org/2000/svg" xmlns:xlink="http://www.w3.org/1999/xlink" x="0px" y="0px"
	 viewBox="0 0 90 90" style="enable-background:new 0 0 90 90;" xml:space="preserve">
<style type="text/css">
	.st0{fill:#FFFFFF;}
	.st1{fill:#FF9900;}
</style>
<g>
	<g>
		<path class="st0" d="M82.3,23.4c-5.8-10-15.1-17.1-26.2-20.1C45,0.4,33.4,1.9,23.4,7.7c-10,5.8-17.1,15.1-20.1,26.2
			C0.4,45,1.9,56.6,7.7,66.6c5.8,10,15.1,17.1,26.2,20.1c3.7,1,7.5,1.5,11.2,1.5c7.5,0,14.8-2,21.5-5.8c10-5.8,17.1-15.1,20.1-26.2
			C89.6,45,88.1,33.4,82.3,23.4z M82.3,55c-2.7,10-9.1,18.3-18,23.4C55.4,83.6,45,85,35,82.3c-10-2.7-18.3-9.1-23.4-18
			C6.4,55.4,5,45,7.7,35c2.7-10,9.1-18.3,18-23.4c6-3.4,12.6-5.2,19.2-5.2c3.4,0,6.7,0.4,10.1,1.3c10,2.7,18.3,9.1,23.4,18
			C83.6,34.6,85,45,82.3,55z M65.7,40.9L38,24.9c-1.5-0.8-3.2-0.8-4.7,0c-1.5,0.8-2.3,2.4-2.3,4.1v32c0,1.7,0.9,3.2,2.3,4.1
			c0.7,0.4,1.5,0.6,2.3,0.6c0.8,0,1.6-0.2,2.3-0.6l27.7-16c1.5-0.8,2.3-2.4,2.3-4.1C68,43.3,67.2,41.8,65.7,40.9z M63.4,45.2
			l-27.7,16c0,0-0.1,0.1-0.2,0c-0.1-0.1-0.1-0.1-0.1-0.2V29c0,0,0-0.1,0.1-0.2c0,0,0.1,0,0.1,0c0,0,0.1,0,0.1,0l27.7,16
			c0,0,0.1,0.1,0.1,0.2C63.5,45.1,63.5,45.2,63.4,45.2z"/>
	</g>
</g>
<path class="st1" d="M68.9,25.4c-5.3-6.9-13.4-11.5-22-12.7c-1.2-0.2-2.4,0.7-2.5,1.9c-0.2,1.2,0.7,2.4,1.9,2.5
	c7.5,1,14.5,5,19.1,11c0.4,0.6,1.1,0.9,1.8,0.9c0.5,0,1-0.2,1.4-0.5C69.5,27.8,69.6,26.4,68.9,25.4z"/>
</svg>
