<?xml version="1.0" encoding="utf-8"?>
<!-- Generator: Adobe Illustrator 21.0.0, SVG Export Plug-In . SVG Version: 6.00 Build 0)  -->
<svg version="1.1" id="Слой_1" xmlns="http://www.w3.org/2000/svg" xmlns:xlink="http://www.w3.org/1999/xlink" x="0px" y="0px"
	 viewBox="0 0 90 90" style="enable-background:new 0 0 90 90;" xml:space="preserve">
<style type="text/css">
	.st0{fill:#FF9900;}
</style>
<path class="st0" d="M62.2,35.6c-0.1-0.4-0.3-0.7-0.5-1h3.2c3.1,0,5.7-2.5,5.7-5.6s-2.5-5.6-5.7-5.6H55c0.6-0.9,1-2,1-3.2
	c0-3.1-2.5-5.6-5.7-5.6H20.2c-3.1,0-5.7,2.5-5.7,5.6c0,3.1,2.5,5.6,5.7,5.6H30c-0.6,0.9-1,2-1,3.2c0,1.2,0.4,2.3,1,3.2h-3.2
	c-3.1,0-5.7,2.5-5.7,5.6c0,1.8,0.8,3.4,2.1,4.4c-1.3,1-2.1,2.6-2.1,4.4S22,50,23.3,51c-1.3,1-2.1,2.6-2.1,4.4s0.8,3.4,2.1,4.4
	c-1.3,1-2.1,2.6-2.1,4.4c0,3.1,2.5,5.6,5.7,5.6h14.5c3.8,4.1,9.3,6.6,15.3,6.6c11.5,0,20.9-9.3,20.9-20.8C77.5,46.1,71,38,62.2,35.6
	z M64.8,25.8c1.8,0,3.2,1.4,3.2,3.2c0,1.8-1.4,3.2-3.2,3.2H57H34.7c-1.8,0-3.2-1.4-3.2-3.2c0-1.8,1.4-3.2,3.2-3.2H64.8z M20.2,23.3
	c-1.8,0-3.2-1.4-3.2-3.2c0-1.8,1.4-3.2,3.2-3.2h30.1c1.8,0,3.2,1.4,3.2,3.2c0,1.8-1.4,3.2-3.2,3.2H20.2z M26.8,34.6H57
	c0.5,0,1,0.1,1.4,0.3c-0.6,0-1.2-0.1-1.8-0.1c-5.8,0-11,2.3-14.8,6.1h-15c-1.8,0-3.2-1.4-3.2-3.2C23.6,36,25,34.6,26.8,34.6z
	 M26.8,43.4h12.9c-1.4,1.9-2.5,4.1-3.2,6.4h-9.7c-1.8,0-3.2-1.4-3.2-3.2C23.6,44.8,25,43.4,26.8,43.4z M26.8,52.2h9.1
	c-0.2,1.1-0.3,2.3-0.3,3.4c0,1,0.1,2,0.2,2.9h-9.1c-1.8,0-3.2-1.4-3.2-3.2C23.6,53.7,25,52.2,26.8,52.2z M26.8,67.4
	c-1.8,0-3.2-1.4-3.2-3.2c0-1.8,1.4-3.2,3.2-3.2h9.6c0.6,2.3,1.6,4.5,3,6.4H26.8z M56.6,74c-10.2,0-18.5-8.2-18.5-18.4
	c0-10.1,8.3-18.4,18.5-18.4c10.2,0,18.5,8.2,18.5,18.4C75,65.8,66.8,74,56.6,74z"/>
<g>
	<g>
		<path d="M56.6,49.7c1.5,0,2.7,1,2.7,2.3c0,0.7,0.6,1.2,1.2,1.2c0.7,0,1.2-0.5,1.2-1.2c0-2.2-1.7-4.1-3.9-4.6v-0.6
			c0-0.7-0.6-1.2-1.2-1.2s-1.2,0.5-1.2,1.2v0.6c-2.3,0.5-3.9,2.4-3.9,4.6c0,2.6,2.3,4.8,5.2,4.8c1.5,0,2.7,1,2.7,2.3
			c0,1.3-1.2,2.3-2.7,2.3c-1.5,0-2.7-1-2.7-2.3c0-0.7-0.6-1.2-1.2-1.2s-1.2,0.5-1.2,1.2c0,2.2,1.7,4.1,3.9,4.6v0.5
			c0,0.7,0.6,1.2,1.2,1.2s1.2-0.5,1.2-1.2v-0.5c2.3-0.5,3.9-2.4,3.9-4.6c0-2.6-2.3-4.8-5.2-4.8c-1.5,0-2.7-1-2.7-2.3
			C53.9,50.7,55.1,49.7,56.6,49.7z M70.1,47.1c-1.6-2.5-3.9-4.5-6.5-5.8c-0.6-0.3-1.3,0-1.6,0.6c-0.3,0.6,0,1.3,0.6,1.6
			c4.7,2.2,7.7,7,7.7,12.2c0,2.2-0.5,4.4-1.6,6.3c-0.3,0.6-0.1,1.3,0.5,1.7c0.2,0.1,0.4,0.1,0.6,0.1c0.4,0,0.9-0.2,1.1-0.6
			c1.2-2.3,1.9-4.9,1.9-7.5C72.6,52.6,71.7,49.6,70.1,47.1z M50.7,67.8c-4.7-2.2-7.7-7-7.7-12.2c0-2.2,0.5-4.4,1.6-6.3
			c0.3-0.6,0.1-1.3-0.5-1.7c-0.6-0.3-1.3-0.1-1.7,0.5c-1.2,2.3-1.9,4.9-1.9,7.5c0,3.1,0.9,6,2.5,8.6c1.6,2.5,3.9,4.5,6.5,5.8
			c0.2,0.1,0.4,0.1,0.5,0.1c0.5,0,0.9-0.3,1.1-0.7C51.6,68.9,51.3,68.1,50.7,67.8z"/>
	</g>
</g>
</svg>
