<?xml version="1.0" encoding="utf-8"?>
<!-- Generator: Adobe Illustrator 21.0.0, SVG Export Plug-In . SVG Version: 6.00 Build 0)  -->
<svg version="1.1" id="Слой_1" xmlns="http://www.w3.org/2000/svg" xmlns:xlink="http://www.w3.org/1999/xlink" x="0px" y="0px"
	 viewBox="0 0 90 90" style="enable-background:new 0 0 90 90;" xml:space="preserve">
<style type="text/css">
	.st0{fill:#FF9900;}
</style>
<g>
	<g>
		<path class="st0" d="M71.8,16.5H18.2c-2,0-3.7,1.7-3.7,3.7v37.5c0,2.1,1.7,3.7,3.7,3.7h18.4v2.7c0,2.5-2,4.5-4.5,4.5h-4.1
			c-0.8,0-1.4,0.6-1.4,1.4c0,0.8,0.6,1.4,1.4,1.4h33.9c0.8,0,1.4-0.6,1.4-1.4c0-0.8-0.6-1.4-1.4-1.4h-4.1c-2.5,0-4.5-2-4.5-4.5v-2.7
			h18.4c2,0,3.7-1.7,3.7-3.7V20.2C75.5,18.2,73.8,16.5,71.8,16.5z M37.8,68.7c1-1.2,1.5-2.8,1.5-4.5v-2.7h11.3v2.7
			c0,1.7,0.6,3.3,1.5,4.5H37.8z M72.7,57.7c0,0.5-0.4,0.9-0.9,0.9H18.2c-0.5,0-0.9-0.4-0.9-0.9v-7.5h55.4V57.7z M72.7,47.4H17.3
			V20.2c0-0.5,0.4-0.9,0.9-0.9h53.6c0.5,0,0.9,0.4,0.9,0.9V47.4z M45,55.9c0.8,0,1.5-0.7,1.5-1.5s-0.7-1.5-1.5-1.5
			c-0.8,0-1.5,0.7-1.5,1.5S44.2,55.9,45,55.9z"/>
	</g>
</g>
<path d="M47.4,26.3c-0.5-0.6-1.4-0.6-2,0l-9.9,10.1c-0.5,0.6-0.5,1.5,0,2c0.3,0.3,0.6,0.4,1,0.4c0.4,0,0.7-0.1,1-0.4l9.9-10.1
	C48,27.8,48,26.9,47.4,26.3z"/>
<path d="M53.3,32.1c-0.5-0.6-1.4-0.6-2,0l-4,4c-0.5,0.6-0.5,1.5,0,2c0.3,0.3,0.6,0.4,1,0.4c0.4,0,0.7-0.1,1-0.4l4-4
	C53.9,33.6,53.9,32.7,53.3,32.1z"/>
</svg>
