<?xml version="1.0" encoding="utf-8"?>
<!-- Generator: Adobe Illustrator 21.0.0, SVG Export Plug-In . SVG Version: 6.00 Build 0)  -->
<svg version="1.1" id="Слой_1" xmlns="http://www.w3.org/2000/svg" xmlns:xlink="http://www.w3.org/1999/xlink" x="0px" y="0px"
	 viewBox="0 0 90 90" style="enable-background:new 0 0 90 90;" xml:space="preserve">
<style type="text/css">
	.st0{fill:#FF9900;}
</style>
<g>
	<g>
		<path d="M72.2,65.8c-2.5,0-4.6,1.7-5.2,4.1h-6.3v-5.6c0-0.7-0.6-1.3-1.3-1.3s-1.3,0.6-1.3,1.3v6.9c0,0.7,0.6,1.3,1.3,1.3H67
			c0.6,2.3,2.7,4.1,5.2,4.1c2.9,0,5.3-2.4,5.3-5.3C77.5,68.2,75.1,65.8,72.2,65.8z M72.2,74c-1.5,0-2.8-1.3-2.8-2.8
			c0-1.5,1.3-2.8,2.8-2.8s2.8,1.3,2.8,2.8C75,72.7,73.7,74,72.2,74z M30.6,15.6H23c-0.6-2.3-2.7-4.1-5.2-4.1c-2.9,0-5.3,2.4-5.3,5.3
			c0,2.9,2.4,5.3,5.3,5.3c2.5,0,4.6-1.7,5.2-4.1h6.3v5.6c0,0.7,0.6,1.3,1.3,1.3c0.7,0,1.3-0.6,1.3-1.3v-6.9
			C31.9,16.1,31.3,15.6,30.6,15.6z M17.8,19.6c-1.5,0-2.8-1.3-2.8-2.8s1.3-2.8,2.8-2.8c1.5,0,2.8,1.3,2.8,2.8S19.4,19.6,17.8,19.6z
			 M30.6,63c-0.7,0-1.3,0.6-1.3,1.3v5.6H23c-0.6-2.3-2.7-4.1-5.2-4.1c-2.9,0-5.3,2.4-5.3,5.3c0,2.9,2.4,5.3,5.3,5.3
			c2.5,0,4.6-1.7,5.2-4.1h7.6c0.7,0,1.3-0.6,1.3-1.3v-6.9C31.9,63.6,31.3,63,30.6,63z M17.8,74c-1.5,0-2.8-1.3-2.8-2.8
			c0-1.5,1.3-2.8,2.8-2.8c1.5,0,2.8,1.3,2.8,2.8C20.6,72.7,19.4,74,17.8,74z M59.4,25c0.7,0,1.3-0.6,1.3-1.3v-5.6H67
			c0.6,2.3,2.7,4.1,5.2,4.1c2.9,0,5.3-2.4,5.3-5.3c0-2.9-2.4-5.3-5.3-5.3c-2.5,0-4.6,1.7-5.2,4.1h-7.6c-0.7,0-1.3,0.6-1.3,1.3v6.9
			C58.1,24.4,58.7,25,59.4,25z M72.2,14c1.5,0,2.8,1.3,2.8,2.8s-1.3,2.8-2.8,2.8s-2.8-1.3-2.8-2.8S70.6,14,72.2,14z"/>
	</g>
</g>
<path class="st0" d="M45,31.1c-7.1,0-12.9,5.8-12.9,12.9c0,7.1,5.8,12.9,12.9,12.9S57.9,51.1,57.9,44C57.9,36.9,52.1,31.1,45,31.1z
	 M51.6,52c-1.8,1.5-4.1,2.4-6.6,2.4c-2.5,0-4.8-0.9-6.6-2.4v-2c0-1,0.7-1.9,1.8-2.1l1.3-0.2c0.9,0.8,2.1,1.4,3.4,1.4h0.2
	c1.3,0,2.5-0.5,3.4-1.4l1.3,0.2c1,0.2,1.8,1.1,1.8,2.1V52L51.6,52z M42.5,44.1v-2.7c0-1.3,1.1-2.4,2.4-2.4h0.2
	c1.3,0,2.4,1.1,2.4,2.4v2.7c0,1.3-1.1,2.4-2.4,2.4h-0.2C43.6,46.5,42.5,45.4,42.5,44.1z M54.1,49.1c-0.4-1.9-1.8-3.4-3.8-3.7
	l-0.4-0.1c0.1-0.4,0.2-0.8,0.2-1.2v-2.7c0-2.7-2.2-4.9-4.9-4.9h-0.2c-2.7,0-4.9,2.2-4.9,4.9v2.7c0,0.4,0.1,0.8,0.2,1.2l-0.4,0.1
	c-1.9,0.4-3.4,1.9-3.8,3.7c-0.9-1.5-1.4-3.3-1.4-5.1c0-5.7,4.7-10.4,10.4-10.4S55.4,38.3,55.4,44C55.4,45.9,54.9,47.6,54.1,49.1z"/>
<path class="st0" d="M71.2,42.7h-4.6v-2.4c0-0.7-0.6-1.3-1.3-1.3h-2.9c-0.4-1.4-0.9-2.7-1.6-3.9l2.1-2.1c0.5-0.5,0.5-1.3,0-1.8
	l-5.1-5.1c-0.5-0.5-1.3-0.5-1.8,0l-2.1,2.1c-1.2-0.7-2.6-1.2-3.9-1.6v-2.9c0-0.7-0.6-1.3-1.3-1.3h-7.3c-0.7,0-1.3,0.6-1.3,1.3v2.9
	c-1.4,0.4-2.7,0.9-3.9,1.6l-2.1-2.1c-0.5-0.5-1.3-0.5-1.8,0l-5.1,5.1c-0.5,0.5-0.5,1.3,0,1.8l2.1,2.1c-0.7,1.2-1.2,2.5-1.6,3.9h-2.9
	c-0.7,0-1.3,0.6-1.3,1.3v2.4h-4.6c-0.7,0-1.3,0.6-1.3,1.3c0,0.7,0.6,1.3,1.3,1.3h4.6v2.4c0,0.7,0.6,1.3,1.3,1.3h3
	c0.4,1.4,0.9,2.7,1.6,3.9l-2.1,2.1c-0.5,0.5-0.5,1.3,0,1.8l5.1,5.1c0.5,0.5,1.3,0.5,1.8,0l2.1-2.1c1.2,0.7,2.5,1.2,3.9,1.6v3
	c0,0.7,0.6,1.3,1.3,1.3h7.3c0.7,0,1.3-0.6,1.3-1.3v-2.9c1.4-0.4,2.7-0.9,3.9-1.6l2.1,2.1c0.5,0.5,1.3,0.5,1.8,0l5.1-5.1
	c0.5-0.5,0.5-1.3,0-1.8l-2.1-2.1c0.7-1.2,1.2-2.6,1.6-3.9h2.9c0.7,0,1.3-0.6,1.3-1.3v-2.4h4.6c0.7,0,1.3-0.6,1.3-1.3
	C72.4,43.3,71.9,42.7,71.2,42.7z M64,46.4h-2.7c-0.6,0-1.1,0.4-1.2,1c-0.4,1.8-1.1,3.4-2.1,5c-0.3,0.5-0.2,1.2,0.2,1.6l1.9,1.9
	l-3.3,3.3l-1.9-1.9c-0.4-0.4-1.1-0.5-1.6-0.2c-1.5,1-3.2,1.7-5,2.1c-0.6,0.1-1,0.6-1,1.2V63h-4.7v-2.7c0-0.6-0.4-1.1-1-1.2
	c-1.8-0.4-3.4-1.1-5-2.1c-0.5-0.3-1.2-0.2-1.6,0.2l-1.9,1.9l-3.3-3.3l1.9-1.9c0.4-0.4,0.5-1.1,0.2-1.6c-1-1.5-1.7-3.2-2.1-5
	c-0.1-0.6-0.6-1-1.2-1H26v-4.7h2.7c0.6,0,1.1-0.4,1.2-1c0.4-1.8,1.1-3.4,2.1-5c0.3-0.5,0.2-1.2-0.2-1.6l-1.9-1.9l3.3-3.3l1.9,1.9
	c0.4,0.4,1.1,0.5,1.6,0.2c1.5-1,3.2-1.7,5-2.1c0.6-0.1,1-0.6,1-1.2V25h4.7v2.6c0,0.6,0.4,1.1,1,1.2c1.8,0.4,3.5,1.1,5,2.1
	c0.5,0.3,1.2,0.2,1.6-0.2l1.9-1.9l3.3,3.3l-1.9,1.9c-0.4,0.4-0.5,1.1-0.2,1.6c1,1.5,1.7,3.2,2.1,5c0.1,0.6,0.6,1,1.2,1H64V46.4z"/>
</svg>
