<?xml version="1.0" encoding="utf-8"?>
<!-- Generator: Adobe Illustrator 21.0.0, SVG Export Plug-In . SVG Version: 6.00 Build 0)  -->
<svg version="1.1" id="Слой_1" xmlns="http://www.w3.org/2000/svg" xmlns:xlink="http://www.w3.org/1999/xlink" x="0px" y="0px"
	 viewBox="0 0 90 90" style="enable-background:new 0 0 90 90;" xml:space="preserve">
<style type="text/css">
	.st0{fill:#FF9900;}
</style>
<g>
	<g>
		<path class="st0" d="M52,28.6c0.2-0.4,0.2-0.9-0.1-1.3L41.7,12.1c-0.2-0.4-0.6-0.6-1.1-0.6s-0.8,0.2-1.1,0.6L29.5,27.3
			c-0.3,0.4-0.3,0.9-0.1,1.3c0.2,0.4,0.7,0.7,1.1,0.7h3.8v14.2h-9.6c-0.7,0-1.3,0.6-1.3,1.3v6.3h-9.6c-0.7,0-1.3,0.6-1.3,1.3v22.9
			c0,0.7,0.6,1.3,1.3,1.3h32c0.7,0,1.3-0.6,1.3-1.3v-46h3.8C51.3,29.3,51.7,29,52,28.6z M23.4,74H15V53.6h8.4V74z M34.3,74H26V46
			h8.4V74z M45.8,26.7c-0.7,0-1.3,0.6-1.3,1.3v46h-7.6V28c0-0.7-0.6-1.3-1.3-1.3h-2.7l7.8-11.7l7.8,11.7H45.8z M63.5,48.6
			c-7.7,0-14,6.3-14,14c0,7.7,6.3,14,14,14c7.7,0,14-6.3,14-14C77.5,54.8,71.2,48.6,63.5,48.6z M63.5,74c-6.3,0-11.4-5.1-11.4-11.4
			c0-6.3,5.1-11.4,11.4-11.4c6.3,0,11.4,5.1,11.4,11.4C75,68.8,69.8,74,63.5,74z"/>
	</g>
</g>
<path d="M41.7,25.7c-0.7,0-1.3,0.6-1.3,1.3v7.6c0,0.7,0.6,1.3,1.3,1.3s1.3-0.6,1.3-1.3V27C43,26.3,42.4,25.7,41.7,25.7z"/>
<path d="M40.4,22.9c0,0.7,0.6,1.3,1.3,1.3c0.7,0,1.3-0.6,1.3-1.3c0-0.7-0.6-1.3-1.3-1.3C41,21.7,40.4,22.2,40.4,22.9z"/>
<path d="M63.7,61.2c-0.7,0-1.3-0.6-1.3-1.3c0-0.7,0.6-1.3,1.3-1.3c0.4,0,0.9,0.2,1.4,0.7c0.5,0.5,1.3,0.5,1.8,0
	c0.5-0.5,0.5-1.3,0-1.8c-0.6-0.6-1.3-1-1.9-1.2v-1.5c0-0.7-0.6-1.3-1.3-1.3c-0.7,0-1.3,0.6-1.3,1.3v1.5c-1.5,0.5-2.5,1.9-2.5,3.6
	c0,2.1,1.7,3.8,3.8,3.8c0.7,0,1.3,0.6,1.3,1.3c0,0.7-0.6,1.3-1.3,1.3c-0.5,0-1.1-0.3-1.6-1c-0.5-0.5-1.3-0.6-1.8-0.2
	c-0.5,0.5-0.6,1.3-0.2,1.8c0.7,0.8,1.5,1.4,2.3,1.7v1.5c0,0.7,0.6,1.3,1.3,1.3c0.7,0,1.3-0.6,1.3-1.3v-1.5c1.5-0.5,2.5-1.9,2.5-3.6
	C67.5,62.9,65.8,61.2,63.7,61.2z"/>
</svg>
