<?xml version="1.0" encoding="utf-8"?>
<!-- Generator: Adobe Illustrator 21.0.0, SVG Export Plug-In . SVG Version: 6.00 Build 0)  -->
<svg version="1.1" id="Слой_1" xmlns="http://www.w3.org/2000/svg" xmlns:xlink="http://www.w3.org/1999/xlink" x="0px" y="0px"
	 viewBox="0 0 90 90" style="enable-background:new 0 0 90 90;" xml:space="preserve">
<style type="text/css">
	.st0{fill:#FF9900;}
</style>
<g>
	<g>
		<path class="st0" d="M68.2,30.1l3.7-3.7c0.6-0.5,0.6-1.4,0-2l-4-3.9c-0.6-0.5-1.4-0.5-2,0l-4.1,4c-3.8-2.5-8.1-4.1-12.6-4.7v-3.1
			h0.7c0.8,0,1.4-0.6,1.4-1.4V9.9c0-0.8-0.6-1.4-1.4-1.4h-9.9c-0.8,0-1.4,0.6-1.4,1.4v5.5c0,0.8,0.6,1.4,1.4,1.4h0.7v3.1
			c-6.5,0.9-12.6,3.8-17.3,8.5c-5.8,5.7-8.9,13.2-8.9,21.2c0,8,3.2,15.5,8.9,21.2c5.8,5.7,13.4,8.8,21.6,8.8
			c8.1,0,15.8-3.1,21.6-8.8c5.8-5.7,8.9-13.2,8.9-21.2C75.5,42.3,72.9,35.5,68.2,30.1z M67,23.5l2,2l-2.7,2.6
			c-0.7-0.7-1.4-1.3-2.1-1.8L67,23.5z M41.5,11.3h7.1V14h-7.1V11.3z M46.4,16.8v2.8c-0.5,0-0.9,0-1.4,0c-0.5,0-0.9,0-1.4,0v-2.8
			H46.4z M45,76.7c-15.3,0-27.7-12.2-27.7-27.2c0-15,12.4-27.2,27.7-27.2s27.7,12.2,27.7,27.2C72.7,64.5,60.3,76.7,45,76.7z
			 M45,25.1c-13.7,0-24.9,10.9-24.9,24.4C20.1,63,31.3,74,45,74S69.9,63,69.9,49.5C69.9,36.1,58.7,25.1,45,25.1z M45,71.2
			c-12.1,0-22-9.7-22-21.6c0-11.9,9.9-21.6,22-21.6s22,9.7,22,21.6C67,61.5,57.1,71.2,45,71.2z"/>
	</g>
</g>
<path d="M46.4,45.6l0-13.4c0-0.8-0.6-1.4-1.4-1.4h0c-0.8,0-1.4,0.6-1.4,1.4l0,13.4c-1.7,0.6-2.8,2.1-2.8,3.9c0,1.8,1.2,3.4,2.8,3.9
	l0,2.2c0,0.8,0.6,1.4,1.4,1.4h0c0.8,0,1.4-0.6,1.4-1.4l0-2.2c1.6-0.6,2.8-2.1,2.8-3.9C49.2,47.7,48.1,46.2,46.4,45.6z M45,50.9
	c-0.8,0-1.4-0.6-1.4-1.4c0-0.8,0.6-1.4,1.4-1.4s1.4,0.6,1.4,1.4C46.4,50.3,45.8,50.9,45,50.9z"/>
</svg>
