<?xml version="1.0" encoding="utf-8"?>
<!-- Generator: Adobe Illustrator 21.0.0, SVG Export Plug-In . SVG Version: 6.00 Build 0)  -->
<svg version="1.1" id="Слой_1" xmlns="http://www.w3.org/2000/svg" xmlns:xlink="http://www.w3.org/1999/xlink" x="0px" y="0px"
	 viewBox="0 0 90 90" style="enable-background:new 0 0 90 90;" xml:space="preserve">
<style type="text/css">
	.st0{fill:#FF9900;}
</style>
<g>
	<g>
		<path class="st0" d="M34.6,48.8h-2.8c-0.4,0-0.8,0.2-1.1,0.5l-8.6,8.6v-7.6c0-0.1,0-0.2,0-0.2c-0.1-0.7-0.7-1.3-1.5-1.3h-4.4
			c-0.3,0-0.6-0.3-0.6-0.6V22.2c0-0.3,0.3-0.6,0.6-0.6h43.6c0.3,0,0.6,0.3,0.6,0.6v10c0,0.8,0.7,1.5,1.5,1.5c0.8,0,1.5-0.7,1.5-1.5
			v-10c0-2-1.6-3.7-3.7-3.7H16.2c-2,0-3.7,1.6-3.7,3.7v26.1c0,2,1.6,3.7,3.7,3.7H19v9.7c0,0.6,0.4,1.2,0.9,1.4
			c0.2,0.1,0.4,0.1,0.6,0.1c0.4,0,0.8-0.2,1.1-0.4l10.8-10.8h2.2c0.8,0,1.5-0.7,1.5-1.5S35.4,48.8,34.6,48.8z M73.8,37.2H43.3
			c-2,0-3.7,1.6-3.7,3.7v17.8c0,2,1.6,3.7,3.7,3.7h19.1l7.7,7.7c0.3,0.3,0.7,0.4,1.1,0.4c0.2,0,0.4,0,0.6-0.1
			c0.6-0.2,0.9-0.8,0.9-1.4v-6.6h1.1c2,0,3.7-1.6,3.7-3.7V40.9C77.5,38.9,75.9,37.2,73.8,37.2z M74.4,58.7c0,0.3-0.3,0.6-0.6,0.6
			h-2.6c-0.8,0-1.5,0.6-1.5,1.4c0,0,0,0.1,0,0.1v4.5l-5.6-5.6c-0.3-0.3-0.7-0.5-1.1-0.5H43.3c-0.3,0-0.6-0.3-0.6-0.6V40.9
			c0-0.3,0.3-0.6,0.6-0.6h30.5c0.3,0,0.6,0.3,0.6,0.6V58.7z M58.6,48.2c-0.8,0-1.5,0.7-1.5,1.5c0,0.8,0.7,1.5,1.5,1.5
			c0.8,0,1.5-0.7,1.5-1.5C60.1,48.9,59.4,48.2,58.6,48.2z M51.5,48.2c-0.8,0-1.5,0.7-1.5,1.5c0,0.8,0.7,1.5,1.5,1.5
			c0.8,0,1.5-0.7,1.5-1.5C53,48.9,52.3,48.2,51.5,48.2z M65.7,48.2c-0.8,0-1.5,0.7-1.5,1.5c0,0.8,0.7,1.5,1.5,1.5
			c0.8,0,1.5-0.7,1.5-1.5C67.2,48.9,66.5,48.2,65.7,48.2z"/>
	</g>
</g>
<path d="M51.9,28.6H24c-0.8,0-1.5,0.7-1.5,1.5s0.7,1.5,1.5,1.5h27.9c0.8,0,1.5-0.7,1.5-1.5C53.4,29.3,52.8,28.6,51.9,28.6z"/>
<path d="M34.6,38.7H24c-0.8,0-1.5,0.7-1.5,1.5c0,0.8,0.7,1.5,1.5,1.5h10.6c0.8,0,1.5-0.7,1.5-1.5C36.1,39.4,35.4,38.7,34.6,38.7z"/>
</svg>
