<?xml version="1.0" encoding="utf-8"?>
<!-- Generator: Adobe Illustrator 21.0.0, SVG Export Plug-In . SVG Version: 6.00 Build 0)  -->
<svg version="1.1" id="Слой_1" xmlns="http://www.w3.org/2000/svg" xmlns:xlink="http://www.w3.org/1999/xlink" x="0px" y="0px"
	 viewBox="0 0 90 90" style="enable-background:new 0 0 90 90;" xml:space="preserve">
<style type="text/css">
	.st0{fill:#FFFFFF;}
	.st1{fill:#FF9001;}
</style>
<g>
	<g>
		<path class="st0" d="M27.6,24.3L27.6,24.3c-0.7,0.5-0.7,1.5-0.2,2.1c0.3,0.4,0.7,0.5,1.2,0.5c0.3,0,0.7-0.1,1-0.3l0,0
			c0.6-0.5,0.7-1.5,0.2-2.1C29.2,23.8,28.2,23.7,27.6,24.3z M44.8,18.1c-4.1,0-8,0.9-11.6,2.6c-0.7,0.4-1.1,1.3-0.7,2
			c0.4,0.7,1.3,1.1,2,0.7c3.2-1.6,6.7-2.3,10.4-2.3c13.2,0,24,10.8,24,24c0,2.8-0.5,5.6-1.5,8.2c-0.3,0.8,0.1,1.6,0.9,1.9
			c0.2,0.1,0.3,0.1,0.5,0.1c0.6,0,1.2-0.4,1.4-1c1.1-3,1.6-6.1,1.6-9.3C71.8,30.2,59.6,18.1,44.8,18.1z M80.9,52.1
			c-2-1.8-3.1-4.3-3.1-6.9s1.1-5.2,3.1-6.9l1.7-1.6c0.5-0.4,0.6-1.1,0.4-1.7l-4-9.7c-0.2-0.6-0.8-1-1.5-0.9l-2.3,0.1
			c-2.6,0.1-5.2-0.9-7.1-2.7c-1.9-1.9-2.9-4.5-2.7-7.1l0.1-2.3c0-0.6-0.3-1.2-0.9-1.5l-9.7-4c-0.6-0.2-1.3-0.1-1.7,0.4L51.6,9
			c-1.8,2-4.3,3.1-6.9,3.1c-2.6,0-5.2-1.1-6.9-3.1l-1.6-1.7c-0.4-0.5-1.1-0.6-1.7-0.4l-9.7,4c-0.6,0.2-1,0.8-0.9,1.5l0.1,2.3
			c0.1,2.6-0.9,5.2-2.7,7.1c-1.9,1.9-4.5,2.9-7.1,2.7l-2.3-0.1c-0.6,0-1.2,0.3-1.5,0.9l-4,9.7c-0.2,0.6-0.1,1.3,0.4,1.7l1.7,1.6
			c2,1.8,3.1,4.3,3.1,6.9c0,2.6-1.1,5.2-3.1,6.9l-1.7,1.6c-0.5,0.4-0.6,1.1-0.4,1.7l4,9.7c0.2,0.6,0.8,1,1.5,0.9l2.3-0.1
			c2.6-0.1,5.2,0.9,7.1,2.7c1.9,1.9,2.9,4.5,2.7,7.1l0,2.2c0,0.6,0.3,1.2,0.9,1.5l9.7,4c0.6,0.2,1.3,0.1,1.7-0.4l1.6-1.7
			c1.8-2,4.3-3.1,6.9-3.1c2.6,0,5.2,1.1,6.9,3.1l1.6,1.7c0.3,0.3,0.7,0.5,1.1,0.5c0.2,0,0.4,0,0.6-0.1l9.7-4c0.6-0.2,1-0.8,0.9-1.5
			l-0.1-2.3c-0.1-2.6,0.9-5.2,2.7-7.1c1.9-1.9,4.5-2.9,7.1-2.7l2.3,0.1c0.6,0,1.2-0.3,1.5-0.9l4-9.7c0.2-0.6,0.1-1.3-0.4-1.7
			L80.9,52.1z M76.7,62.9l-1.3-0.1c-3.5-0.2-6.9,1.1-9.4,3.6s-3.8,5.9-3.6,9.4l0.1,1.3l-7.7,3.2l-0.9-0.9c-2.3-2.6-5.7-4.1-9.2-4.1
			s-6.8,1.5-9.2,4.1l-0.9,0.9L27,77l0.1-1.3c0.2-3.5-1.1-6.9-3.6-9.4s-5.9-3.8-9.4-3.6l-1.3,0.1l-3.2-7.7l0.9-0.9
			c2.6-2.3,4.1-5.7,4.1-9.2s-1.5-6.8-4.1-9.2l-0.9-0.9l3.2-7.7l1.3,0.1c3.5,0.2,6.9-1.1,9.4-3.6s3.8-5.9,3.6-9.4L27,13.2l7.7-3.2
			l0.9,0.9c2.3,2.6,5.7,4.1,9.2,4.1s6.8-1.5,9.2-4.1l0.9-0.9l7.7,3.2l-0.1,1.3c-0.2,3.5,1.1,6.9,3.6,9.4s5.9,3.8,9.4,3.6l1.3-0.1
			l3.2,7.7L79.1,36c-2.6,2.3-4.1,5.7-4.1,9.2s1.5,6.8,4.1,9.2l0.9,0.9L76.7,62.9z"/>
	</g>
</g>
<path class="st1" d="M59.1,59.5L53.6,54c-1.9-1.9-4.7-2.2-6.9-0.8l-2.8,1.7l-9-8.9l1.7-2.8c1.4-2.2,1-5.1-0.8-6.9l-5.5-5.5
	c-2.2-2.2-5.8-2.2-8,0c-5.3,5.3-5.3,14,0,19.4l17.3,17.3c2.6,2.6,6,4,9.7,4s7.1-1.4,9.7-4C61.3,65.3,61.3,61.7,59.1,59.5z M57,65.4
	c-0.5,0.5-0.9,0.9-1.4,1.2l-5.3-5.3c-0.6-0.6-1.5-0.6-2.1,0s-0.6,1.5,0,2.1l4.6,4.6c-1,0.3-2.2,0.5-3.3,0.5c-2.9,0-5.5-1.1-7.6-3.1
	L24.5,48c-2.9-2.9-3.8-7.1-2.6-10.8l5.1,5.1c0.3,0.3,0.7,0.4,1.1,0.4s0.8-0.1,1.1-0.4c0.6-0.6,0.6-1.5,0-2.1l-5.8-5.8
	c0.4-0.5,0.8-1,1.2-1.4c0.5-0.5,1.2-0.8,1.9-0.8s1.3,0.3,1.9,0.8l5.5,5.5c0.9,0.9,1,2.2,0.4,3.2L32,45.5c-0.4,0.6-0.3,1.4,0.2,1.8
	l10.6,10.6c0.5,0.5,1.3,0.6,1.8,0.2l3.8-2.3c1-0.6,2.4-0.5,3.2,0.4l5.5,5.5C58,62.7,58,64.4,57,65.4z"/>
<path class="st1" d="M50.8,43.6h-4.5c0-1.1,0.9-1.9,2-1.9c2.2,0,4-1.8,4-4s-1.8-4-4-4h-3.5c-0.8,0-1.5,0.7-1.5,1.5s0.7,1.5,1.5,1.5
	h3.5c0.6,0,1,0.5,1,1c0,0.6-0.5,1-1,1c-2.8,0-5,2.2-5,5v1.4c0,0.8,0.7,1.5,1.5,1.5h6c0.8,0,1.5-0.7,1.5-1.5S51.6,43.6,50.8,43.6z"/>
<path class="st1" d="M61.9,33.7c-0.8,0-1.5,0.7-1.5,1.5v3.5h-3v-3.5c0-0.8-0.7-1.5-1.5-1.5s-1.5,0.7-1.5,1.5v5
	c0,0.8,0.7,1.5,1.5,1.5h4.5v3.4c0,0.8,0.7,1.5,1.5,1.5s1.5-0.7,1.5-1.5v-9.9C63.4,34.4,62.7,33.7,61.9,33.7z"/>
</svg>
