<?xml version="1.0" encoding="utf-8"?>
<!-- Generator: Adobe Illustrator 21.0.0, SVG Export Plug-In . SVG Version: 6.00 Build 0)  -->
<svg version="1.1" id="Слой_1" xmlns="http://www.w3.org/2000/svg" xmlns:xlink="http://www.w3.org/1999/xlink" x="0px" y="0px"
	 viewBox="0 0 90 90" style="enable-background:new 0 0 90 90;" xml:space="preserve">
<style type="text/css">
	.st0{fill:#FFA42F;}
</style>
<path class="st0" d="M73.3,36.8L71.3,32c0,0,4.8-10.6,4.4-11l-6.1-6.2c-0.4-0.4-11,4.3-11,4.3l-4.8-2c0,0-4.1-10.9-4.7-10.9L40.5,6
	c-0.6,0-4.7,10.8-4.7,10.8L31,18.7c0,0-10.6-4.8-11-4.4l-6.2,6C13.3,20.8,18,31.3,18,31.3L16,36.1c0,0-10.9,4.1-10.9,4.7L5,49.5
	c0,0.6,10.8,4.7,10.8,4.7l1.9,4.8c0,0-4.8,10.6-4.4,11l6.1,6.2c0.4,0.4,10.9-4.3,10.9-4.3l4.8,2.1c0,0,4.1,10.9,4.7,10.9l8.7,0.1
	c0.6,0,4.7-10.8,4.7-10.8l4.9-1.9c0,0,10.6,4.8,11,4.4l6.2-6c0.4-0.4-4.3-10.9-4.3-10.9l2.1-4.8c0,0,10.9-4.1,10.9-4.7l0.1-8.7
	C84.1,40.9,73.3,36.8,73.3,36.8z M57.2,45.7c-0.1,7-5.8,12.6-12.8,12.5c-7-0.1-12.6-5.8-12.5-12.8c0.1-7,5.9-12.6,12.8-12.5
	C51.7,33,57.3,38.7,57.2,45.7z"/>
</svg>
