<?xml version="1.0" encoding="utf-8"?>
<!-- Generator: Adobe Illustrator 21.0.0, SVG Export Plug-In . SVG Version: 6.00 Build 0)  -->
<svg version="1.1" id="Слой_1" xmlns="http://www.w3.org/2000/svg" xmlns:xlink="http://www.w3.org/1999/xlink" x="0px" y="0px"
	 viewBox="0 0 90 90" style="enable-background:new 0 0 90 90;" xml:space="preserve">
<style type="text/css">
	.st0{fill:#FFA42F;}
</style>
<g>
	<g>
		<path class="st0" d="M74,40.6c-0.5-16.2-13.3-29.1-29-29.1c-15.7,0-28.5,13-29,29.1c-2.6,0.5-4.5,2.8-4.5,5.5v15.6
			c0,3.1,2.5,5.6,5.6,5.6c0,5.5,4.5,10,10,10h10.4c0.4,0.7,1.1,1.1,1.9,1.1h10c1.2,0,2.2-1,2.2-2.2v-4.5c0-1.2-1-2.2-2.2-2.2h-10
			c-0.8,0-1.5,0.4-1.9,1.1H27.1c-1.8,0-3.3-1.5-3.3-3.4c1.2,0,2.2-1,2.2-2.2V42.8c0-1.2-1-2.2-2.2-2.2h-1.1
			C23.3,28.1,33,18.2,45,18.2s21.7,9.9,22.3,22.3h-1.1c-1.2,0-2.2,1-2.2,2.2v22.3c0,1.2,1,2.2,2.2,2.2h6.7c3.1,0,5.6-2.5,5.6-5.6
			V46.1C78.5,43.5,76.6,41.2,74,40.6z M39.4,71.8h10l0,4.5H39.4V71.8z M27.1,72.9h10.1v2.2H27.1c-4.3,0-7.8-3.5-7.8-7.8h2.2
			C21.6,70.4,24.1,72.9,27.1,72.9z M23.8,42.8l0,22.3h-6.7c-1.8,0-3.3-1.5-3.4-3.3V46.1c0-1.8,1.5-3.3,3.4-3.4H23.8z M45,16
			c-13.2,0-24,10.9-24.5,24.6h-2.2C18.8,25.7,30.6,13.7,45,13.7c14.4,0,26.2,11.9,26.8,26.8h-2.2C69,26.9,58.2,16,45,16z M76.3,61.8
			c0,1.8-1.5,3.3-3.3,3.3h-6.7V42.8h6.7c1.8,0,3.3,1.5,3.3,3.4V61.8z"/>
	</g>
</g>
<path d="M45,37.2c-4.3,0-7.8,3.5-7.8,7.8c0,4.3,3.5,7.8,7.8,7.8c4.3,0,7.8-3.5,7.8-7.8S49.3,37.2,45,37.2z M45,50.6
	c-3.1,0-5.6-2.5-5.6-5.6c0-3.1,2.5-5.6,5.6-5.6c3.1,0,5.6,2.5,5.6,5.6S48.1,50.6,45,50.6z"/>
<path d="M60.8,41.7l-3.2-1.1c-0.2-0.5-0.4-1-0.6-1.4l1.5-3c0.2-0.4,0.1-0.8-0.1-1.2c-1-1.3-2.2-2.5-3.5-3.5
	c-0.3-0.3-0.8-0.3-1.2-0.1l-3,1.5c-0.5-0.2-0.9-0.4-1.4-0.6l-1.1-3.2c-0.1-0.4-0.5-0.7-0.9-0.8c-1.6-0.2-3.3-0.2-4.9,0
	c-0.4,0.1-0.8,0.4-0.9,0.8l-1.1,3.2c-0.5,0.2-1,0.4-1.4,0.6l-3-1.5c-0.4-0.2-0.8-0.1-1.2,0.1c-1.3,1-2.5,2.2-3.5,3.5
	c-0.3,0.3-0.3,0.8-0.1,1.2l1.5,3c-0.2,0.5-0.4,0.9-0.6,1.4l-3.2,1.1c-0.4,0.1-0.7,0.5-0.8,0.9c-0.2,1.6-0.2,3.3,0,4.9
	c0.1,0.4,0.4,0.8,0.8,0.9l3.2,1.1c0.2,0.5,0.4,1,0.6,1.4l-1.5,3c-0.2,0.4-0.1,0.8,0.1,1.2c1,1.3,2.2,2.5,3.5,3.5
	c0.3,0.3,0.8,0.3,1.2,0.1l3-1.5c0.5,0.2,0.9,0.4,1.4,0.6l1.1,3.2c0.1,0.4,0.5,0.7,0.9,0.8c1.6,0.2,3.3,0.2,4.9,0
	c0.4-0.1,0.8-0.4,0.9-0.8l1.1-3.2c0.5-0.2,1-0.4,1.4-0.6l3,1.5c0.4,0.2,0.8,0.1,1.2-0.1c1.3-1,2.5-2.2,3.5-3.5
	c0.3-0.3,0.3-0.8,0.1-1.2l-1.5-3c0.2-0.5,0.4-0.9,0.6-1.4l3.2-1.1c0.4-0.1,0.7-0.5,0.8-0.9c0.2-1.6,0.2-3.3,0-4.9
	C61.5,42.1,61.2,41.8,60.8,41.7z M59.4,46.5l-3,1c-0.3,0.1-0.6,0.4-0.7,0.7c-0.2,0.7-0.5,1.4-0.9,2.1c-0.2,0.3-0.2,0.7,0,1l1.4,2.9
	c-0.3,0.4-0.6,0.7-1,1.1c-0.4,0.4-0.7,0.7-1.1,1l-2.9-1.4c-0.3-0.2-0.7-0.2-1,0c-0.7,0.4-1.4,0.6-2.1,0.9c-0.3,0.1-0.6,0.4-0.7,0.7
	l-1,3c-1,0.1-1.9,0.1-2.9,0l-1-3c-0.1-0.3-0.4-0.6-0.7-0.7c-0.7-0.2-1.4-0.5-2.1-0.9c-0.3-0.2-0.7-0.2-1,0l-2.9,1.4
	c-0.4-0.3-0.7-0.6-1.1-1c-0.4-0.4-0.7-0.7-1-1.1l1.4-2.9c0.2-0.3,0.2-0.7,0-1c-0.4-0.7-0.6-1.4-0.9-2.1c-0.1-0.3-0.4-0.6-0.7-0.7
	l-3-1c-0.1-1-0.1-1.9,0-2.9l3-1c0.3-0.1,0.6-0.4,0.7-0.7c0.2-0.7,0.5-1.4,0.9-2.1c0.2-0.3,0.2-0.7,0-1l-1.4-2.9
	c0.3-0.4,0.6-0.7,1-1.1c0.4-0.4,0.7-0.7,1.1-1l2.9,1.4c0.3,0.2,0.7,0.2,1,0c0.7-0.4,1.4-0.6,2.1-0.9c0.3-0.1,0.6-0.4,0.7-0.7l1-3
	c1-0.1,1.9-0.1,2.9,0l1,3c0.1,0.3,0.4,0.6,0.7,0.7c0.7,0.2,1.4,0.5,2.1,0.9c0.3,0.2,0.7,0.2,1,0l2.9-1.4c0.4,0.3,0.7,0.6,1.1,1
	c0.4,0.4,0.7,0.7,1,1.1l-1.4,2.9c-0.2,0.3-0.2,0.7,0,1c0.4,0.7,0.6,1.4,0.9,2.1c0.1,0.3,0.4,0.6,0.7,0.7l3,1
	C59.5,44.5,59.5,45.5,59.4,46.5z"/>
</svg>
