<?xml version="1.0" encoding="utf-8"?>
<!-- Generator: Adobe Illustrator 21.0.0, SVG Export Plug-In . SVG Version: 6.00 Build 0)  -->
<svg version="1.1" id="Слой_1" xmlns="http://www.w3.org/2000/svg" xmlns:xlink="http://www.w3.org/1999/xlink" x="0px" y="0px"
	 viewBox="0 0 90 90" style="enable-background:new 0 0 90 90;" xml:space="preserve">
<style type="text/css">
	.st0{fill:#FFA42F;}
</style>
<g>
	<g>
		<path class="st0" d="M58.2,58.8c1.2,0,2.2,1,2.2,2.2c0,0.6,0.5,1.1,1.1,1.1s1.1-0.5,1.1-1.1c0-2.4-2-4.4-4.4-4.4
			c-0.6,0-1.1,0.5-1.1,1.1C57.1,58.3,57.6,58.8,58.2,58.8z M68.2,8.5H21.8c-1.8,0-3.3,1.5-3.3,3.3v59.1c0,1.8,1.5,3.3,3.3,3.3h24.3
			c0,0.1,0,0.2,0.1,0.3c0.2,0.3,0.5,0.6,0.8,0.6l2.9,0.5l2.5,2.6c0.2,0.2,0.5,0.3,0.8,0.3c0,0,0.1,0,0.1,0c0.3,0,0.6-0.2,0.8-0.5
			l2.2-3.8h3.7l2.2,3.8c0.2,0.3,0.5,0.5,0.8,0.5c0,0,0.1,0,0.1,0c0.3,0,0.6-0.1,0.8-0.3l2.5-2.6l2.9-0.5c0.4-0.1,0.7-0.3,0.8-0.6
			c0.2-0.3,0.1-0.7,0-1c0.8-0.6,1.3-1.6,1.3-2.6V11.8C71.5,10,70,8.5,68.2,8.5z M53,75.6l-1.8-1.8c-0.2-0.2-0.4-0.3-0.6-0.3L49,73.2
			l3.4-5.7c1.1,1,2.6,1.8,4.1,2.1L53,75.6z M51.6,61c0-3.6,3-6.6,6.6-6.6s6.6,2.9,6.6,6.6c0,3.6-3,6.6-6.6,6.6S51.6,64.6,51.6,61z
			 M57.6,71.9l0.6-1.1l0.6,1.1H57.6z M65.8,73.5c-0.2,0-0.4,0.2-0.6,0.3l-1.8,1.8l-3.4-6c1.6-0.3,3-1.1,4.1-2.1l3.3,5.7L65.8,73.5z
			 M69.3,70.8c0,0.2-0.1,0.5-0.2,0.6l-3.4-5.8c0.9-1.4,1.4-3,1.4-4.7c0-4.8-4-8.7-8.8-8.7s-8.8,3.9-8.8,8.7c0,1.7,0.5,3.3,1.4,4.7
			l-3.7,6.3H21.8c-0.6,0-1.1-0.5-1.1-1.1V11.8c0-0.6,0.5-1.1,1.1-1.1h46.4c0.6,0,1.1,0.5,1.1,1.1V70.8z M30.6,58.8
			c-0.6,0-1.1,0.5-1.1,1.1c0,0.6,0.5,1.1,1.1,1.1h9.9c0.6,0,1.1-0.5,1.1-1.1c0-0.6-0.5-1.1-1.1-1.1H30.6z M66,17.2
			c-1.8,0-3.3-1.5-3.3-3.3c0-0.6-0.5-1.1-1.1-1.1H28.4c-0.6,0-1.1,0.5-1.1,1.1c0,1.8-1.5,3.3-3.3,3.3c-0.6,0-1.1,0.5-1.1,1.1v45.9
			c0,0.6,0.5,1.1,1.1,1.1c1.8,0,3.3,1.5,3.3,3.3c0,0.6,0.5,1.1,1.1,1.1H45c0.6,0,1.1-0.5,1.1-1.1s-0.5-1.1-1.1-1.1H29.4
			c-0.4-2.1-2.1-3.8-4.3-4.3v-44c2.2-0.4,3.9-2.1,4.3-4.3h31.1c0.4,2.1,2.1,3.8,4.3,4.3v32.9c0,0.6,0.5,1.1,1.1,1.1
			c0.6,0,1.1-0.5,1.1-1.1V18.3C67.1,17.7,66.6,17.2,66,17.2z"/>
	</g>
</g>
<path d="M53.8,24.9c0.6,0,1.1-0.5,1.1-1.1c0-0.6-0.5-1.1-1.1-1.1H36.2c-0.6,0-1.1,0.5-1.1,1.1c0,0.6,0.5,1.1,1.1,1.1H53.8z"/>
<path d="M59.4,28.2H30.6c-0.6,0-1.1,0.5-1.1,1.1c0,0.6,0.5,1.1,1.1,1.1h28.7c0.6,0,1.1-0.5,1.1-1.1C60.5,28.7,60,28.2,59.4,28.2z"/>
<path d="M34,39.1h1.1c0.6,0,1.1-0.5,1.1-1.1s-0.5-1.1-1.1-1.1H34c-0.6,0-1.1,0.5-1.1,1.1S33.3,39.1,34,39.1z"/>
<path d="M34,44.6h1.1c0.6,0,1.1-0.5,1.1-1.1c0-0.6-0.5-1.1-1.1-1.1H34c-0.6,0-1.1,0.5-1.1,1.1C32.9,44.1,33.3,44.6,34,44.6z"/>
<path d="M34,50.1h1.1c0.6,0,1.1-0.5,1.1-1.1s-0.5-1.1-1.1-1.1H34c-0.6,0-1.1,0.5-1.1,1.1S33.3,50.1,34,50.1z"/>
<path d="M56,36.9H39.5c-0.6,0-1.1,0.5-1.1,1.1s0.5,1.1,1.1,1.1H56c0.6,0,1.1-0.5,1.1-1.1S56.7,36.9,56,36.9z"/>
<path d="M56,42.4H39.5c-0.6,0-1.1,0.5-1.1,1.1c0,0.6,0.5,1.1,1.1,1.1H56c0.6,0,1.1-0.5,1.1-1.1C57.1,42.9,56.7,42.4,56,42.4z"/>
<path d="M56,47.9H39.5c-0.6,0-1.1,0.5-1.1,1.1s0.5,1.1,1.1,1.1H56c0.6,0,1.1-0.5,1.1-1.1S56.7,47.9,56,47.9z"/>
</svg>
