<?xml version="1.0" encoding="utf-8"?>
<!-- Generator: Adobe Illustrator 21.0.0, SVG Export Plug-In . SVG Version: 6.00 Build 0)  -->
<svg version="1.1" id="Слой_1" xmlns="http://www.w3.org/2000/svg" xmlns:xlink="http://www.w3.org/1999/xlink" x="0px" y="0px"
	 viewBox="0 0 90 90" style="enable-background:new 0 0 90 90;" xml:space="preserve">
<style type="text/css">
	.st0{fill-rule:evenodd;clip-rule:evenodd;fill:#FFA42F;}
	.st1{fill-rule:evenodd;clip-rule:evenodd;}
</style>
<g>
	<g>
		<path class="st0" d="M31.6,71.1H29v2.5h2.5V71.1z M36.6,56.2h-2.5v2.5h2.5V56.2z M36.6,71.1h-2.5v2.5h2.5V71.1z M67,26.4
			c-0.7,0-1.5,0-2.2,0.1C61.4,15.4,49.4,9.1,38,12.4c-8.7,2.5-14.8,10.2-15.3,19c-0.4,0-0.9-0.1-1.3-0.1c-7.7,0-13.9,6.1-13.9,13.6
			c0,7.5,6.2,13.6,13.9,13.6H24v3.7c0,0.7,0.6,1.2,1.3,1.2h2.5v2.5h-2.5c-0.7,0-1.3,0.6-1.3,1.2v9.9c0,0.7,0.6,1.2,1.3,1.2h40.5
			c0.7,0,1.3-0.6,1.3-1.2v-9.9c0-0.7-0.6-1.2-1.3-1.2h-2.5v-2.5h2.5c0.7,0,1.3-0.6,1.3-1.2v-3.7c9.1,0,16.5-7.2,16.5-16.1
			C83.5,33.6,76.1,26.4,67,26.4z M64.5,68.6V76h-38v-7.4H64.5z M30.3,66.1v-2.5h30.4v2.5H30.3z M64.5,61.1h-38v-7.4h38V61.1z
			 M69.9,55.9c-0.9,0.2-1.9,0.3-2.8,0.3v-3.7c0-0.7-0.6-1.2-1.3-1.2H53.1V40h11.6c0.7,1.9,2.9,3,4.8,2.3c2-0.7,3-2.8,2.3-4.7
			c-0.7-1.9-2.9-3-4.8-2.3c-1.1,0.4-1.9,1.2-2.3,2.3H51.8c-0.7,0-1.3,0.6-1.3,1.2v12.4h-5.1v0.3H24.4c-0.3,0.2-0.5,0.6-0.5,0.9v3.7
			h-2.5c-6.3,0-11.4-5-11.4-11.2c0-6.2,5.1-11.2,11.4-11.2c0.8,0,1.5,0.1,2.3,0.2c0.4,0.1,0.8,0,1.1-0.3c0.3-0.2,0.5-0.6,0.5-1
			c0,0,0-0.2,0-0.2c0-10.3,8.5-18.6,19-18.6c6.2,0,11.7,2.9,15.2,7.5h0v0.1c1.5,2,2.6,4.2,3.2,6.7c0.2,0.7,0.8,1.1,1.5,0.9
			c7.5-1.5,14.9,3.2,16.5,10.6C82.2,47.1,77.4,54.3,69.9,55.9z M67,38.8c0-0.7,0.6-1.2,1.3-1.2s1.3,0.6,1.3,1.2
			c0,0.7-0.6,1.2-1.3,1.2S67,39.5,67,38.8z M31.6,56.2H29v2.5h2.5V56.2z"/>
	</g>
</g>
<g>
	<g>
		<path class="st1" d="M51.8,23.9c-1.1,0.4-1.9,1.2-2.3,2.3H43c-0.7,0-1.3,0.6-1.3,1.2v24.1h2.5V28.6h5.3c0.7,1.9,2.9,3,4.8,2.3
			c2-0.7,3-2.8,2.3-4.7C56,24.2,53.8,23.2,51.8,23.9z M53.1,28.6c-0.7,0-1.3-0.6-1.3-1.2c0-0.7,0.6-1.2,1.3-1.2
			c0.7,0,1.3,0.6,1.3,1.2C54.4,28.1,53.8,28.6,53.1,28.6z M59.5,22.5C59.5,22.5,59.5,22.5,59.5,22.5L59.5,22.5L59.5,22.5z
			 M34.1,42.3h-6.6c-0.7-1.9-2.9-3-4.8-2.3c-2,0.7-3,2.8-2.3,4.7c0.7,1.9,2.9,3,4.8,2.3c1.1-0.4,1.9-1.2,2.3-2.3h5.3v6.7h2.5v-8
			C35.4,42.8,34.8,42.3,34.1,42.3z M24,44.8c-0.7,0-1.3-0.6-1.3-1.2s0.6-1.2,1.3-1.2c0.7,0,1.3,0.6,1.3,1.2
			C25.2,44.2,24.7,44.8,24,44.8z"/>
	</g>
</g>
</svg>
