<?xml version="1.0" encoding="utf-8"?>
<!-- Generator: Adobe Illustrator 21.0.0, SVG Export Plug-In . SVG Version: 6.00 Build 0)  -->
<svg version="1.1" id="Слой_1" xmlns="http://www.w3.org/2000/svg" xmlns:xlink="http://www.w3.org/1999/xlink" x="0px" y="0px"
	 viewBox="0 0 90 90" style="enable-background:new 0 0 90 90;" xml:space="preserve">
<style type="text/css">
	.st0{fill:#FFFFFF;}
	.st1{fill:#FF9001;}
</style>
<g>
	<g>
		<path class="st0" d="M47.1,29.5c0.9,0,1.7-0.7,1.7-1.6c0-0.9-0.8-1.6-1.7-1.6H32.6c-0.9,0-1.7,0.7-1.7,1.6v32.9
			c0,0.9,0.8,1.6,1.7,1.6h14.5c0.9,0,1.7-0.7,1.7-1.6c0-0.9-0.8-1.6-1.7-1.6H34.2V29.5H47.1z M82.8,52.2c-2-1.8-3.2-4.5-3.2-7.2
			c0-2.7,1.2-5.4,3.2-7.2l1.8-1.6c0.5-0.4,0.6-1.1,0.4-1.8l-4.2-10.1c-0.3-0.6-0.9-1-1.5-1l-2.4,0.1c-2.7,0.1-5.4-0.9-7.4-2.8
			c-1.9-1.9-3-4.6-2.8-7.4l0.1-2.4c0-0.7-0.4-1.3-1-1.5L55.8,5.2c-0.6-0.3-1.3-0.1-1.8,0.4l-1.6,1.8c-1.8,2-4.5,3.2-7.2,3.2
			c-2.7,0-5.4-1.2-7.2-3.2l-1.6-1.8c-0.4-0.5-1.1-0.6-1.8-0.4L24.5,9.4c-0.6,0.3-1,0.9-1,1.5l0.1,2.4c0.1,2.7-0.9,5.4-2.8,7.4
			c-1.9,1.9-4.6,3-7.4,2.8l-2.4-0.1c-0.7,0-1.3,0.4-1.5,1L5.4,34.4c-0.3,0.6-0.1,1.3,0.4,1.8l1.8,1.6c2,1.8,3.2,4.5,3.2,7.2
			c0,2.7-1.2,5.4-3.2,7.2l-1.8,1.6c-0.5,0.4-0.6,1.1-0.4,1.8l4.2,10.1c0.3,0.6,0.9,1,1.5,1l2.4-0.1c2.7-0.1,5.4,0.9,7.4,2.8
			c1.9,1.9,3,4.6,2.8,7.4l-0.1,2.4c0,0.7,0.4,1.3,1,1.5l10.1,4.2c0.6,0.3,1.3,0.1,1.8-0.4l1.6-1.8c1.8-2,4.5-3.2,7.2-3.2
			s5.4,1.2,7.2,3.2l1.6,1.8c0.3,0.3,0.7,0.5,1.2,0.5c0.2,0,0.4,0,0.6-0.1l10.1-4.2c0.6-0.3,1-0.9,1-1.5l-0.1-2.4
			c-0.1-2.7,0.9-5.4,2.8-7.4c1.9-1.9,4.6-3,7.4-2.8l2.4,0.1c0.7,0,1.3-0.4,1.5-1L85,55.6c0.3-0.6,0.1-1.3-0.4-1.8L82.8,52.2z
			 M78.4,63.4l-1.3-0.1c-3.6-0.2-7.2,1.2-9.7,3.7c-2.6,2.6-3.9,6.1-3.7,9.7l0.1,1.3l-8,3.3l-0.9-1c-2.4-2.7-5.9-4.2-9.5-4.2
			c-3.6,0-7.1,1.5-9.5,4.2l-0.9,1l-8-3.3l0.1-1.3c0.2-3.6-1.2-7.2-3.7-9.7c-2.6-2.6-6.1-3.9-9.7-3.7L12,63.4l-3.3-8l1-0.9
			c2.7-2.4,4.2-5.9,4.2-9.5c0-3.6-1.5-7.1-4.2-9.5l-1-0.9l3.3-8l1.3,0.1c3.6,0.2,7.2-1.2,9.7-3.7c2.6-2.6,3.9-6.1,3.7-9.7l-0.1-1.3
			l8-3.3l0.9,1c2.4,2.7,5.9,4.2,9.5,4.2s7.1-1.5,9.5-4.2l0.9-1l8,3.3l-0.1,1.3c-0.2,3.6,1.2,7.2,3.7,9.7c2.6,2.6,6.1,3.9,9.7,3.7
			l1.3-0.1l3.3,8l-1,0.9c-2.7,2.4-4.2,5.9-4.2,9.5c0,3.6,1.5,7.1,4.2,9.5l1,0.9L78.4,63.4z"/>
	</g>
</g>
<path class="st1" d="M57.2,35.4c-0.7-0.6-1.7-0.6-2.4,0c-0.7,0.6-0.7,1.7,0,2.3l5,4.9H39.3c-0.9,0-1.7,0.7-1.7,1.6
	c0,0.9,0.8,1.6,1.7,1.6h20.5l-5,4.9c-0.7,0.6-0.7,1.7,0,2.3c0.3,0.3,0.8,0.5,1.2,0.5c0.4,0,0.9-0.2,1.2-0.5l7.8-7.7
	c0.7-0.6,0.7-1.7,0-2.3L57.2,35.4z"/>
<path class="st1" d="M57.2,35.4c-0.7-0.6-1.7-0.6-2.4,0c-0.7,0.6-0.7,1.7,0,2.3l5,4.9H39.3c-0.9,0-1.7,0.7-1.7,1.6
	c0,0.9,0.8,1.6,1.7,1.6h20.5l-5,4.9c-0.7,0.6-0.7,1.7,0,2.3c0.3,0.3,0.8,0.5,1.2,0.5c0.4,0,0.9-0.2,1.2-0.5l7.8-7.7
	c0.7-0.6,0.7-1.7,0-2.3L57.2,35.4z"/>
</svg>
