<?xml version="1.0" encoding="utf-8"?>
<!-- Generator: Adobe Illustrator 21.0.0, SVG Export Plug-In . SVG Version: 6.00 Build 0)  -->
<svg version="1.1" id="Слой_1" xmlns="http://www.w3.org/2000/svg" xmlns:xlink="http://www.w3.org/1999/xlink" x="0px" y="0px"
	 viewBox="0 0 90 90" style="enable-background:new 0 0 90 90;" xml:space="preserve">
<style type="text/css">
	.st0{fill:#FFFFFF;}
	.st1{fill:#FF9001;}
</style>
<g>
	<g>
		<path class="st0" d="M61.5,36.1c-0.1-0.4-0.3-0.7-0.5-1h3.2c3.1,0,5.7-2.5,5.7-5.6c0-3.1-2.5-5.6-5.7-5.6h-9.9c0.6-0.9,1-2,1-3.2
			c0-3.1-2.5-5.6-5.7-5.6H19.4c-3.1,0-5.7,2.5-5.7,5.6c0,3.1,2.5,5.6,5.7,5.6h9.9c-0.6,0.9-1,2-1,3.2c0,1.2,0.4,2.3,1,3.2h-3.2
			c-3.1,0-5.7,2.5-5.7,5.6c0,1.8,0.8,3.4,2.1,4.4c-1.3,1-2.1,2.6-2.1,4.4c0,1.8,0.8,3.4,2.1,4.4c-1.3,1-2.1,2.6-2.1,4.4
			c0,1.8,0.8,3.4,2.1,4.4c-1.3,1-2.1,2.6-2.1,4.4c0,3.1,2.5,5.6,5.7,5.6h14.5c3.8,4.1,9.3,6.6,15.3,6.6c11.5,0,20.9-9.3,20.9-20.8
			C76.8,46.6,70.3,38.6,61.5,36.1z M64.1,26.3c1.8,0,3.2,1.4,3.2,3.2c0,1.8-1.4,3.2-3.2,3.2H34c-1.8,0-3.2-1.4-3.2-3.2
			c0-1.8,1.4-3.2,3.2-3.2H64.1z M19.4,23.9c-1.8,0-3.2-1.4-3.2-3.2c0-1.8,1.4-3.2,3.2-3.2h30.1c1.8,0,3.2,1.4,3.2,3.2
			c0,1.8-1.4,3.2-3.2,3.2H19.4z M26.1,35.1h30.1c0.5,0,1,0.1,1.4,0.3c-0.6,0-1.2-0.1-1.8-0.1c-5.8,0-11,2.3-14.8,6.1h-15
			c-1.8,0-3.2-1.4-3.2-3.2C22.9,36.6,24.3,35.1,26.1,35.1z M26.1,44H39c-1.4,1.9-2.5,4.1-3.2,6.4h-9.7c-1.8,0-3.2-1.4-3.2-3.2
			C22.9,45.4,24.3,44,26.1,44z M26.1,52.8h9.1C35.1,53.9,35,55,35,56.2c0,1,0.1,2,0.2,2.9h-9.1c-1.8,0-3.2-1.4-3.2-3.2
			C22.9,54.2,24.3,52.8,26.1,52.8z M26.1,68c-1.8,0-3.2-1.4-3.2-3.2c0-1.8,1.4-3.2,3.2-3.2h9.6c0.6,2.3,1.6,4.5,3,6.4H26.1z
			 M55.9,74.6c-10.2,0-18.5-8.2-18.5-18.4c0-10.1,8.3-18.4,18.5-18.4c10.2,0,18.5,8.2,18.5,18.4C74.3,66.3,66,74.6,55.9,74.6z"/>
	</g>
</g>
<path class="st1" d="M55.9,54.9c-1.5,0-2.7-1-2.7-2.3c0-1.3,1.2-2.3,2.7-2.3c1.5,0,2.7,1,2.7,2.3c0,0.7,0.6,1.2,1.2,1.2
	s1.2-0.5,1.2-1.2c0-2.2-1.7-4.1-3.9-4.6v-0.6c0-0.7-0.6-1.2-1.2-1.2c-0.7,0-1.2,0.5-1.2,1.2v0.6c-2.3,0.5-3.9,2.4-3.9,4.6
	c0,2.6,2.3,4.8,5.2,4.8c1.5,0,2.7,1,2.7,2.3c0,1.3-1.2,2.3-2.7,2.3c-1.5,0-2.7-1-2.7-2.3c0-0.7-0.6-1.2-1.2-1.2
	c-0.7,0-1.2,0.5-1.2,1.2c0,2.2,1.7,4.1,3.9,4.6v0.5c0,0.7,0.6,1.2,1.2,1.2c0.7,0,1.2-0.5,1.2-1.2v-0.5c2.3-0.5,3.9-2.4,3.9-4.6
	C61,57,58.7,54.9,55.9,54.9z"/>
<path class="st1" d="M69.3,47.6c-1.6-2.5-3.9-4.5-6.5-5.8c-0.6-0.3-1.3,0-1.6,0.6c-0.3,0.6,0,1.3,0.6,1.6c4.7,2.2,7.7,7,7.7,12.2
	c0,2.2-0.5,4.4-1.6,6.3c-0.3,0.6-0.1,1.3,0.5,1.7c0.2,0.1,0.4,0.1,0.6,0.1c0.4,0,0.9-0.2,1.1-0.6c1.2-2.3,1.9-4.9,1.9-7.5
	C71.9,53.1,71,50.2,69.3,47.6z"/>
<path class="st1" d="M50,68.4c-4.7-2.2-7.7-7-7.7-12.2c0-2.2,0.5-4.4,1.6-6.3c0.3-0.6,0.1-1.3-0.5-1.7c-0.6-0.3-1.3-0.1-1.7,0.5
	c-1.2,2.3-1.9,4.9-1.9,7.5c0,3.1,0.9,6,2.5,8.6c1.6,2.5,3.9,4.5,6.5,5.8c0.2,0.1,0.4,0.1,0.5,0.1c0.5,0,0.9-0.3,1.1-0.7
	C50.9,69.4,50.6,68.7,50,68.4z"/>
</svg>
