<?xml version="1.0" encoding="utf-8"?>
<!-- Generator: Adobe Illustrator 21.0.0, SVG Export Plug-In . SVG Version: 6.00 Build 0)  -->
<svg version="1.1" id="Слой_1" xmlns="http://www.w3.org/2000/svg" xmlns:xlink="http://www.w3.org/1999/xlink" x="0px" y="0px"
	 viewBox="0 0 90 90" style="enable-background:new 0 0 90 90;" xml:space="preserve">
<style type="text/css">
	.st0{fill:#FF9001;}
	.st1{fill:#FFFFFF;}
</style>
<path class="st0" d="M49,68.9c0.8-0.5,1.5-1.2,2.1-2.1c1.1-1.8,1-4.1-0.2-5.8l-4.7-6.8c-0.5-0.6-1.4-0.7-2-0.2
	c-0.1,0.1-0.2,0.2-0.2,0.2L39.1,61c-1.2,1.7-1.3,4-0.2,5.8C41.1,70.1,45.6,71.1,49,68.9z M41.4,62.5l3.6-5.2l3.6,5.2
	c0.6,0.8,0.7,1.9,0.1,2.8c-1.4,2.1-4.2,2.6-6.3,1.2c-0.5-0.3-0.9-0.8-1.2-1.2C40.7,64.4,40.8,63.3,41.4,62.5z"/>
<path class="st0" d="M21.4,24c-0.5-0.6-1.4-0.7-2-0.2c-0.1,0.1-0.2,0.2-0.2,0.2l-4.7,6.8c-1.2,1.7-1.3,4-0.2,5.8
	c2.2,3.4,6.7,4.3,10.1,2.1c0.8-0.5,1.5-1.2,2.1-2.1c1.1-1.8,1-4.1-0.2-5.8L21.4,24z M24.1,35.1c-1.4,2.1-4.2,2.6-6.3,1.2
	c-0.5-0.3-0.9-0.8-1.2-1.2c-0.5-0.9-0.5-2,0.1-2.8l3.6-5.2l3.6,5.2C24.5,33.2,24.6,34.3,24.1,35.1z"/>
<path class="st0" d="M69.7,39.9c2.5,0,4.7-1.2,6.1-3.3c1.1-1.8,1-4.1-0.2-5.8L70.8,24c-0.5-0.6-1.4-0.7-2-0.2
	c-0.1,0.1-0.2,0.2-0.2,0.2l-4.7,6.8c-1.2,1.7-1.3,4-0.2,5.8C64.9,38.7,67.2,39.9,69.7,39.9z M66.1,32.4l3.6-5.2l3.6,5.2
	c0.6,0.8,0.7,1.9,0.1,2.8c-1.4,2.1-4.2,2.6-6.3,1.2c-0.5-0.3-0.9-0.8-1.2-1.2C65.4,34.3,65.5,33.2,66.1,32.4z"/>
<path class="st1" d="M86.1,7H68.3V2.9c0-0.8-0.6-1.4-1.4-1.4h-8.2c-0.8,0-1.4,0.6-1.4,1.4V7h-4.1c-0.8,0-1.4,0.6-1.4,1.4v28.8h-8.2
	V33c0-0.8-0.6-1.4-1.4-1.4h-4.1V8.4c0-0.8-0.6-1.4-1.4-1.4H19V2.9c0-0.8-0.6-1.4-1.4-1.4H9.4C8.6,1.5,8,2.1,8,2.9V7H3.9
	C3.1,7,2.5,7.6,2.5,8.4V55c0,0.8,0.6,1.4,1.4,1.4h23.3v28.8c0,0.8,0.6,1.4,1.4,1.4h32.9c0.8,0,1.4-0.6,1.4-1.4V56.3h23.3
	c0.8,0,1.4-0.6,1.4-1.4V8.4C87.5,7.6,86.9,7,86.1,7z M60.1,4.2h5.5V7h-5.5V4.2z M40.9,34.4v2.7h-5.5v-2.7H40.9z M10.7,4.2h5.5V7
	h-5.5V4.2z M5.2,9.7h30.2v2.7H5.2V9.7z M27.2,53.6H5.2v-2.7h21.9V53.6z M27.2,38.5v9.6H5.2V15.2h30.2v16.5H34
	c-0.8,0-1.4,0.6-1.4,1.4v4.1h-4.1C27.8,37.1,27.2,37.8,27.2,38.5z M60.1,83.8H29.9V81h30.2V83.8z M60.1,78.3H29.9V45.4h30.2V78.3z
	 M60.1,42.6H29.9v-2.7h30.2V42.6z M84.8,53.6H62.8v-2.7h21.9V53.6z M84.8,48.1H62.8v-9.6c0-0.8-0.6-1.4-1.4-1.4h-6.9V15.2h30.2V48.1
	z M84.8,12.5H54.6V9.7h30.2V12.5z"/>
</svg>
