<?xml version="1.0" encoding="utf-8"?>
<!-- Generator: Adobe Illustrator 21.0.0, SVG Export Plug-In . SVG Version: 6.00 Build 0)  -->
<svg version="1.1" id="Слой_1" xmlns="http://www.w3.org/2000/svg" xmlns:xlink="http://www.w3.org/1999/xlink" x="0px" y="0px"
	 viewBox="0 0 90 90" style="enable-background:new 0 0 90 90;" xml:space="preserve">
<g>
	<g>
		<path d="M57.4,48c-0.2-0.3-0.5-0.5-0.9-0.5h-8v-19c0-0.5-0.4-1-1-1h-7.1c-0.5,0-1,0.4-1,1v19h-8c-0.4,0-0.7,0.2-0.9,0.5
			c-0.2,0.3-0.1,0.7,0.1,1l12.5,16.1c0.2,0.2,0.5,0.4,0.8,0.4s0.6-0.1,0.8-0.4L57.3,49c0.1-0.2,0.2-0.4,0.2-0.6
			C57.5,48.3,57.5,48.1,57.4,48z M44,62.9L33.5,49.4h7c0.5,0,1-0.4,1-1v-19h5.2v19c0,0.5,0.4,1,1,1h7L44,62.9z M50.5,52.5l0.2-0.2
			c0.1-0.2,0.2-0.4,0.2-0.6c0-0.3-0.1-0.6-0.4-0.8c-0.4-0.3-1-0.2-1.4,0.2l-0.2,0.2c-0.3,0.4-0.3,1,0.2,1.4
			C49.5,53,50.1,52.9,50.5,52.5z M43.9,57.8c-0.3,0.4-0.3,1,0.2,1.4c0.4,0.3,1,0.2,1.4-0.2l3.1-4c0.1-0.2,0.2-0.4,0.2-0.6
			c0-0.3-0.1-0.6-0.4-0.8c-0.4-0.3-1-0.2-1.4,0.2L43.9,57.8z"/>
	</g>
</g>
<path d="M82.8,36.4c-1.6-0.2-3.2-0.5-4.8-0.7c-0.2,0-0.4-0.2-0.4-0.3c-0.7-2.7-1.8-5.3-3.2-7.8c-0.1-0.2-0.1-0.4,0-0.5
	c1-1.3,2-2.6,2.9-3.9c1.3-1.7,1.1-4.2-0.4-5.7l-5.3-5.3c-1.5-1.5-4-1.7-5.7-0.4c-1.3,0.9-2.6,1.9-3.9,2.9c-0.2,0.1-0.4,0.1-0.5,0
	c-2.4-1.4-5.1-2.5-7.8-3.2c-0.2,0-0.3-0.2-0.3-0.4c-0.2-1.6-0.4-3.2-0.7-4.8c-0.3-2.1-2.2-3.7-4.4-3.7h-7.5c-2.2,0-4,1.6-4.4,3.7
	c-0.2,1.6-0.5,3.2-0.7,4.8c0,0.2-0.2,0.4-0.3,0.4c-2.7,0.7-5.3,1.8-7.8,3.2c-0.2,0.1-0.4,0.1-0.5,0c-1.3-1-2.6-2-3.9-2.9
	c-1.7-1.3-4.2-1.1-5.7,0.4l-5.3,5.3c-1.5,1.5-1.7,4-0.4,5.7c1,1.3,1.9,2.6,2.9,3.9c0.1,0.2,0.1,0.4,0,0.5c-1.4,2.4-2.5,5.1-3.2,7.8
	c0,0.2-0.2,0.3-0.4,0.3c-1.6,0.2-3.2,0.4-4.8,0.7c-2.1,0.3-3.7,2.2-3.7,4.4v7.5c0,2.2,1.6,4,3.7,4.4c1.6,0.2,3.2,0.5,4.8,0.7
	c0.2,0,0.4,0.2,0.4,0.3c0.7,2.7,1.8,5.3,3.2,7.8c0.1,0.2,0.1,0.4,0,0.5c-1,1.3-2,2.6-2.9,3.9c-1.3,1.7-1.1,4.2,0.4,5.7l5.3,5.3
	c1.5,1.5,4,1.7,5.7,0.4c1.3-0.9,2.6-1.9,3.9-2.9c0.2-0.1,0.4-0.1,0.5,0c2.4,1.4,5.1,2.5,7.8,3.2c0.2,0,0.3,0.2,0.3,0.4
	c0.2,1.6,0.4,3.2,0.7,4.8c0.3,2.1,2.2,3.7,4.4,3.7h7.5c2.2,0,4-1.6,4.4-3.7c0.2-1.6,0.5-3.2,0.7-4.8c0-0.2,0.2-0.4,0.3-0.4
	c2.7-0.7,5.3-1.8,7.8-3.2c0.2-0.1,0.4-0.1,0.5,0c1.3,1,2.6,2,3.9,2.9c1.7,1.3,4.2,1.1,5.7-0.4l5.3-5.3c1.5-1.5,1.7-4,0.4-5.7
	c-1-1.3-1.9-2.6-2.9-3.9c-0.1-0.2-0.1-0.4,0-0.5c1.4-2.4,2.5-5.1,3.2-7.8c0-0.2,0.2-0.3,0.4-0.3c1.6-0.2,3.2-0.4,4.8-0.7
	c2.1-0.3,3.7-2.2,3.7-4.4v-7.5C86.5,38.6,84.9,36.7,82.8,36.4z M82.6,48.3c0,0.2-0.2,0.4-0.4,0.5c-1.6,0.2-3.2,0.5-4.7,0.7
	c-1.8,0.2-3.2,1.5-3.7,3.2c-0.7,2.4-1.6,4.7-2.9,6.9c-0.9,1.5-0.7,3.4,0.3,4.9c1,1.3,2,2.6,2.9,3.8c0.1,0.2,0.1,0.5-0.1,0.6
	l-5.3,5.3c-0.2,0.2-0.4,0.2-0.6,0.1c-1.3-0.9-2.6-1.9-3.8-2.9c-1.4-1.1-3.3-1.2-4.9-0.3c-2.2,1.2-4.5,2.2-6.9,2.9
	c-1.7,0.5-3,1.9-3.2,3.7c-0.2,1.6-0.4,3.2-0.7,4.7c0,0.2-0.2,0.4-0.5,0.4h-7.5c-0.2,0-0.4-0.2-0.5-0.4c-0.2-1.6-0.5-3.1-0.7-4.7
	c-0.2-1.8-1.5-3.2-3.2-3.7c-2.4-0.7-4.7-1.6-6.9-2.9c-0.7-0.4-1.4-0.6-2.2-0.6c-1,0-1.9,0.3-2.7,0.9c-1.3,1-2.6,2-3.8,2.9
	c-0.2,0.1-0.5,0.1-0.6-0.1l-5.3-5.3c-0.2-0.2-0.2-0.4-0.1-0.6c0.9-1.3,1.9-2.6,2.9-3.8c1.1-1.4,1.2-3.3,0.3-4.9
	c-1.2-2.2-2.2-4.5-2.9-6.9c-0.5-1.7-1.9-3-3.7-3.2C10,49.2,8.4,49,6.8,48.7c-0.2,0-0.4-0.2-0.4-0.5v-7.5c0-0.2,0.2-0.4,0.4-0.5
	c1.6-0.2,3.2-0.5,4.7-0.7c1.8-0.2,3.2-1.5,3.7-3.2c0.7-2.4,1.6-4.7,2.9-6.9c0.9-1.5,0.7-3.4-0.3-4.9c-1-1.3-2-2.6-2.9-3.8
	c-0.1-0.2-0.1-0.5,0.1-0.6l5.3-5.3c0.2-0.2,0.4-0.2,0.6-0.1c1.3,0.9,2.6,1.9,3.8,2.9c1.4,1.1,3.3,1.2,4.9,0.3
	c2.2-1.2,4.5-2.2,6.9-2.9c1.7-0.5,3-1.9,3.2-3.7c0.2-1.6,0.4-3.2,0.7-4.7c0-0.2,0.2-0.4,0.5-0.4h7.5c0.2,0,0.4,0.2,0.5,0.4
	c0.2,1.6,0.5,3.1,0.7,4.7c0.2,1.8,1.5,3.2,3.2,3.7c2.4,0.7,4.7,1.6,6.9,2.9c1.5,0.9,3.4,0.7,4.9-0.3c1.3-1,2.6-2,3.8-2.9
	c0.2-0.1,0.5-0.1,0.6,0.1l5.3,5.3c0.2,0.2,0.2,0.4,0.1,0.6c-0.9,1.3-1.9,2.6-2.9,3.8c-1.1,1.4-1.2,3.3-0.3,4.9
	c1.2,2.2,2.2,4.5,2.9,6.9c0.5,1.7,1.9,3,3.7,3.2c1.6,0.2,3.2,0.4,4.7,0.7c0.2,0,0.4,0.2,0.4,0.5L82.6,48.3L82.6,48.3z"/>
</svg>
