<?xml version="1.0" encoding="utf-8"?>
<!-- Generator: Adobe Illustrator 21.0.0, SVG Export Plug-In . SVG Version: 6.00 Build 0)  -->
<svg version="1.1" id="Слой_1" xmlns="http://www.w3.org/2000/svg" xmlns:xlink="http://www.w3.org/1999/xlink" x="0px" y="0px"
	 viewBox="0 0 90 90" style="enable-background:new 0 0 90 90;" xml:space="preserve">
<path d="M83,54.6l-1.8-1.6c-2-1.8-3.1-4.4-3.1-7.1c0-2.7,1.1-5.3,3.1-7.1l1.8-1.6c0.5-0.4,0.6-1.1,0.4-1.7l-4.1-9.8
	c-0.2-0.6-0.8-1-1.5-0.9L75.5,25c-2.7,0.1-5.3-0.9-7.2-2.8c-1.9-1.9-2.9-4.5-2.8-7.2l0.1-2.4c0-0.6-0.3-1.2-0.9-1.5l-9.8-4.1
	c-0.6-0.2-1.3-0.1-1.7,0.4l-1.6,1.8c-1.8,2-4.4,3.1-7.1,3.1c-2.7,0-5.3-1.1-7.1-3.1l-1.6-1.8c-0.4-0.5-1.1-0.6-1.7-0.4l-9.8,4.1
	c-0.6,0.2-1,0.8-0.9,1.5l0.1,2.4c0.1,2.7-0.9,5.3-2.8,7.2c-1.9,1.9-4.5,2.9-7.2,2.8l-2.4-0.1c-0.6,0-1.2,0.3-1.5,0.9l-4.1,9.8
	c-0.2,0.6-0.1,1.3,0.4,1.7l1.8,1.6c2,1.8,3.1,4.4,3.1,7.1c0,2.7-1.1,5.3-3.1,7.1L6,54.6c-0.5,0.4-0.6,1.1-0.4,1.7l4.1,9.8
	c0.2,0.6,0.8,1,1.5,0.9l2.4-0.1c2.7-0.1,5.3,0.9,7.2,2.8c1.9,1.9,2.9,4.5,2.8,7.2l-0.1,2.4c0,0.6,0.3,1.2,0.9,1.5l9.8,4.1
	c0.6,0.2,1.3,0.1,1.7-0.4l1.6-1.8c1.8-2,4.4-3.1,7.1-3.1c2.7,0,5.3,1.1,7.1,3.1l1.6,1.8c0.3,0.3,0.7,0.5,1.1,0.5
	c0.2,0,0.4,0,0.6-0.1l9.8-4.1c0.6-0.2,1-0.8,0.9-1.5L65.5,77c-0.1-2.7,0.9-5.3,2.8-7.2c1.9-1.9,4.5-2.9,7.2-2.8l2.4,0.1
	c0.6,0,1.2-0.3,1.5-0.9l4.1-9.8C83.6,55.8,83.5,55.1,83,54.6z M76.9,64L75.6,64c-3.5-0.2-7,1.2-9.5,3.7c-2.5,2.5-3.8,6-3.7,9.5
	l0.1,1.3l-7.8,3.2l-0.9-1c-2.4-2.6-5.8-4.1-9.3-4.1c-3.5,0-6.9,1.5-9.3,4.1l-0.9,1l-7.8-3.2l0.1-1.3c0.2-3.5-1.2-7-3.7-9.5
	c-2.5-2.5-6-3.8-9.5-3.7L12.1,64l-3.2-7.8l1-0.9c2.6-2.4,4.1-5.8,4.1-9.3c0-3.5-1.5-6.9-4.1-9.3l-1-0.9l3.2-7.8l1.3,0.1
	c3.5,0.2,7-1.2,9.5-3.7c2.5-2.5,3.8-6,3.7-9.5l-0.1-1.3l7.8-3.3l0.9,1c2.4,2.6,5.8,4.1,9.3,4.1c3.5,0,6.9-1.5,9.3-4.1l0.9-1l7.8,3.3
	l-0.1,1.3c-0.2,3.5,1.2,7,3.7,9.5c2.5,2.5,6,3.8,9.5,3.7l1.3-0.1l3.2,7.8l-1,0.9c-2.6,2.4-4.1,5.8-4.1,9.3c0,3.5,1.5,6.9,4.1,9.3
	l1,0.9L76.9,64z"/>
<path d="M47.4,53.5c0-1.5,0.1-2.6,0.3-3.3c0.2-0.7,0.7-1.5,1.6-2.4c1.9-1.9,3.5-3.7,4.6-5.5c1.2-1.8,1.8-3.7,1.8-5.9
	c0-3-0.9-5.3-2.7-7c-1.8-1.7-4.4-2.5-7.6-2.5c-3,0-5.4,0.8-7.4,2.4c-1.9,1.6-2.9,3.8-2.8,6.4l0.1,0.1h4.7c0-1.6,0.5-2.8,1.6-3.6
	c1.1-0.8,2.3-1.2,3.8-1.2c1.7,0,3.1,0.5,4,1.4c0.9,0.9,1.4,2.3,1.4,4.1c0,1.5-0.3,2.7-1,3.8c-0.7,1-1.9,2.5-3.5,4.5
	c-1.7,1.5-2.7,2.8-3.1,3.7c-0.4,0.9-0.6,2.6-0.6,5H47.4z M47.6,58.5h-5.1v5.2h5.1V58.5z"/>
</svg>
