<?xml version="1.0" encoding="utf-8"?>
<!-- Generator: Adobe Illustrator 21.0.0, SVG Export Plug-In . SVG Version: 6.00 Build 0)  -->
<svg version="1.1" id="Слой_1" xmlns="http://www.w3.org/2000/svg" xmlns:xlink="http://www.w3.org/1999/xlink" x="0px" y="0px"
	 viewBox="0 0 90 90" style="enable-background:new 0 0 90 90;" xml:space="preserve">
<style type="text/css">
	.st0{fill:#FF692A;}
</style>
<path class="st0" d="M51.6,46.7L51.6,46.7c-2.4,0-4.4,2-4.4,4.4c0,2.4,2,4.4,4.4,4.4l0,0c2.4,0,4.4-2,4.4-4.4
	C56,48.7,54,46.7,51.6,46.7z M38.4,42.3c2.4,0,4.4-2,4.4-4.4c0-2.4-2-4.4-4.4-4.4c-2.4,0-4.4,2-4.4,4.4C34,40.3,36,42.3,38.4,42.3z
	 M51.6,33.5L51.6,33.5c-2.4,0-4.4,2-4.4,4.4c0,2.4,2,4.4,4.4,4.4l0,0c2.4,0,4.4-2,4.4-4.4C56,35.5,54,33.5,51.6,33.5z M56,11.4H34
	v8.8h22V11.4z M64.8,42.3c2.4,0,4.4-2,4.4-4.4c0-2.4-2-4.4-4.4-4.4c-2.4,0-4.4,2-4.4,4.4C60.4,40.3,62.4,42.3,64.8,42.3z M64.8,55.5
	c2.4,0,4.4-2,4.4-4.4c0-2.4-2-4.4-4.4-4.4c-2.4,0-4.4,2-4.4,4.4C60.4,53.5,62.4,55.5,64.8,55.5z M38.4,55.5c2.4,0,4.4-2,4.4-4.4
	c0-2.4-2-4.4-4.4-4.4c-2.4,0-4.4,2-4.4,4.4C34,53.5,36,55.5,38.4,55.5z M25.2,68.7c2.4,0,4.4-2,4.4-4.4c0-2.4-2-4.4-4.4-4.4
	c-2.4,0-4.4,2-4.4,4.4C20.8,66.8,22.7,68.7,25.2,68.7z M78.1,11.4h-4.4v8.8h4.4v57.3H11.9V20.3h4.4v-8.8h-4.4
	c-4.9,0-8.8,3.9-8.8,8.8v57.3c0,4.9,3.9,8.8,8.8,8.8h66.1c4.9,0,8.8-3.9,8.8-8.8V20.3C86.9,15.4,82.9,11.4,78.1,11.4z M25.2,55.5
	c2.4,0,4.4-2,4.4-4.4c0-2.4-2-4.4-4.4-4.4c-2.4,0-4.4,2-4.4,4.4C20.8,53.5,22.7,55.5,25.2,55.5z M25.2,42.3c2.4,0,4.4-2,4.4-4.4
	c0-2.4-2-4.4-4.4-4.4c-2.4,0-4.4,2-4.4,4.4C20.8,40.3,22.7,42.3,25.2,42.3z M38.4,68.7c2.4,0,4.4-2,4.4-4.4c0-2.4-2-4.4-4.4-4.4
	c-2.4,0-4.4,2-4.4,4.4C34,66.8,36,68.7,38.4,68.7z M25.2,20.3c2.4,0,4.4-2,4.4-4.4V7c0-2.4-2-4.4-4.4-4.4c-2.4,0-4.4,2-4.4,4.4v8.8
	C20.8,18.3,22.7,20.3,25.2,20.3z M64.8,20.3c2.4,0,4.4-2,4.4-4.4V7c0-2.4-2-4.4-4.4-4.4c-2.4,0-4.4,2-4.4,4.4v8.8
	C60.4,18.3,62.4,20.3,64.8,20.3z"/>
</svg>
