<?xml version="1.0" encoding="utf-8"?>
<!-- Generator: Adobe Illustrator 21.0.0, SVG Export Plug-In . SVG Version: 6.00 Build 0)  -->
<svg version="1.1" id="Слой_1" xmlns="http://www.w3.org/2000/svg" xmlns:xlink="http://www.w3.org/1999/xlink" x="0px" y="0px"
	 viewBox="0 0 90 90" style="enable-background:new 0 0 90 90;" xml:space="preserve">
<style type="text/css">
	.st0{fill:#FFFFFF;}
	.st1{fill:#FF9001;}
</style>
<g>
	<g>
		<path class="st0" d="M70.2,20.2c-6.4-6.4-15-10-24.1-10c-7.9,0-15.6,2.8-21.7,7.8c-0.5,0.4-0.6,1.1-0.2,1.6
			c0.4,0.5,1.1,0.6,1.6,0.2c5.7-4.7,12.9-7.3,20.2-7.3c17.5,0,31.8,14.3,31.8,31.8c0,7.9-2.9,15.4-8.2,21.3
			c-0.4,0.5-0.4,1.2,0.1,1.6c0.2,0.2,0.5,0.3,0.8,0.3c0.3,0,0.6-0.1,0.9-0.4c5.6-6.3,8.8-14.4,8.8-22.8
			C80.2,35.2,76.6,26.7,70.2,20.2z M66.5,68.7c-5.7,4.8-13,7.5-20.5,7.5c-17.5,0-31.8-14.3-31.8-31.8c0-8,3-15.6,8.4-21.5
			c0.4-0.5,0.4-1.2-0.1-1.6c-0.5-0.4-1.2-0.4-1.6,0.1c-5.8,6.3-9,14.5-9,23.1c0,9.1,3.5,17.7,10,24.1c6.4,6.4,15,10,24.1,10
			c8,0,15.8-2.8,21.9-8c0.5-0.4,0.5-1.1,0.1-1.6C67.7,68.3,67,68.3,66.5,68.7z"/>
	</g>
</g>
<path class="st1" d="M50.5,35.4h-8.9c-0.6,0-1.1,0.5-1.1,1.1v30.1c0,0.6,0.5,1.1,1.1,1.1h8.9c0.6,0,1.1-0.5,1.1-1.1V36.6
	C51.7,35.9,51.2,35.4,50.5,35.4z M49.4,65.5h-6.6V37.7h6.6V65.5z"/>
<path class="st1" d="M46.1,20.7c-3.5,0-6.4,2.9-6.4,6.4s2.9,6.4,6.4,6.4s6.4-2.9,6.4-6.4C52.5,23.6,49.6,20.7,46.1,20.7z M46.1,31.2
	c-2.3,0-4.1-1.8-4.1-4.1c0-2.3,1.8-4.1,4.1-4.1c2.3,0,4.1,1.8,4.1,4.1C50.2,29.4,48.3,31.2,46.1,31.2z"/>
</svg>
