<?xml version="1.0" encoding="utf-8"?>
<!-- Generator: Adobe Illustrator 21.0.0, SVG Export Plug-In . SVG Version: 6.00 Build 0)  -->
<svg version="1.1" id="Слой_1" xmlns="http://www.w3.org/2000/svg" xmlns:xlink="http://www.w3.org/1999/xlink" x="0px" y="0px"
	 viewBox="0 0 90 90" style="enable-background:new 0 0 90 90;" xml:space="preserve">
<style type="text/css">
	.st0{fill:#FFFFFF;}
	.st1{fill:#FF9001;}
</style>
<g>
	<g>
		<path class="st0" d="M86.8,74.1H80V26.2c0-0.8-0.6-1.4-1.4-1.4H65c-0.8,0-1.4,0.6-1.4,1.4v47.9h-6.8c-0.8,0-1.4,0.6-1.4,1.4v1.4
			h-15c-0.8,0-1.4-0.6-1.4-1.4v-1.4h1.4c0.8,0,1.4-0.6,1.4-1.4v-4.1h4.1c0.4,0,0.7-0.1,1-0.4l5.5-5.5c0.3-0.3,0.4-0.6,0.4-1V23.5
			c0-0.4-0.1-0.7-0.4-1L46.9,17c-0.3-0.3-0.6-0.4-1-0.4h-6.8v-5.5c0-4.5-3.7-8.2-8.2-8.2H11.8c-4.5,0-8.2,3.7-8.2,8.2v75.3
			c0,0.8,0.6,1.4,1.4,1.4h5.5c0.8,0,1.4-0.6,1.4-1.4V12.5c0-0.8,0.6-1.4,1.4-1.4h16.4c0.8,0,1.4,0.6,1.4,1.4v4.1h-6.8
			c-0.4,0-0.7,0.1-1,0.4l-5.5,5.5c-0.3,0.3-0.4,0.6-0.4,1v38.3c0,0.4,0.1,0.7,0.4,1l5.5,5.5c0.3,0.3,0.6,0.4,1,0.4h4.1v4.1
			c0,0.8,0.6,1.4,1.4,1.4h1.4v2.7c0,4.5,3.7,8.2,8.2,8.2h16.4v1.4c0,0.8,0.6,1.4,1.4,1.4h30c0.8,0,1.4-0.6,1.4-1.4v-11
			C88.2,74.7,87.6,74.1,86.8,74.1z M29.5,8.4H13.2c-2.3,0-4.1,1.8-4.1,4.1v72.6H6.4V11.1c0-3,2.4-5.5,5.5-5.5h19.1
			c3,0,5.5,2.5,5.5,5.5v5.5h-2.7v-4.1C33.6,10.2,31.8,8.4,29.5,8.4z M24.6,19.4h20.7l2.7,2.7H21.9L24.6,19.4z M20,24.8h30v35.6H20
			V24.8z M24.6,65.9l-2.7-2.7h26.1l-2.7,2.7H24.6z M30.9,71.4v-2.7h8.2v2.7H30.9z M55.4,82.3H39.1c-3,0-5.5-2.5-5.5-5.5v-2.7h2.7
			v1.4c0,2.3,1.8,4.1,4.1,4.1h15V82.3z M66.3,27.6h10.9v2.7H66.3V27.6z M66.3,33h10.9v8.2H66.3V33z M66.3,44h7.3l-7.3,4.4V44z
			 M77.3,45v4.4h-7.3L77.3,45z M66.3,52.2h10.9v5.5H66.3V52.2z M66.3,60.4h7.3l-7.3,4.4V60.4z M77.3,61.5v4.4h-7.3L77.3,61.5z
			 M66.3,68.6h10.9v5.5H66.3V68.6z M85.4,85.1H58.2v-2.7h27.3V85.1z M85.4,79.6H58.2v-2.7h27.3V79.6z M56.8,13.9
			c0.4,0,0.9-0.1,1.3-0.2c1.6,2.2,4.3,3.3,7,2.7c0.7,3.7,4.2,6.2,7.9,5.5c3.7-0.7,6.2-4.2,5.5-7.9c-0.6-3.3-3.4-5.6-6.7-5.6
			c-0.5,0-1,0.1-1.5,0.2c-0.7-3.7-4.2-6.2-7.9-5.5c-0.9,0.2-1.7,0.5-2.5,1c-0.9-0.7-2-1.1-3.2-1.1c-3,0-5.5,2.5-5.5,5.5
			C51.3,11.4,53.8,13.9,56.8,13.9z M55.5,6c0.4-0.2,0.8-0.3,1.3-0.3c0.8,0,1.6,0.4,2.1,1c0.2,0.3,0.6,0.5,1,0.5c0.4,0,0.7-0.1,1-0.4
			c1.6-1.5,4.2-1.5,5.8,0.2c0.7,0.8,1.1,1.8,1.1,2.8c0,0.2,0,0.4-0.1,0.6c-0.1,0.7,0.4,1.4,1.2,1.6c0.3,0,0.6,0,0.9-0.2
			c0.6-0.4,1.4-0.6,2.1-0.6c2.3,0,4.1,1.8,4.1,4.1s-1.8,4.1-4.1,4.1c-2.3,0-4.1-1.8-4.1-4.1c0-0.2,0-0.4,0.1-0.6
			c0.1-0.7-0.4-1.4-1.1-1.6c-0.3,0-0.6,0-0.9,0.2c-2,1.2-4.5,0.5-5.6-1.5c-0.1-0.1-0.1-0.2-0.2-0.3c-0.3-0.7-1.1-1-1.8-0.7
			c0,0,0,0-0.1,0c-1.3,0.7-3,0.2-3.7-1.2C53.7,8.3,54.2,6.7,55.5,6z"/>
	</g>
</g>
<path class="st1" d="M36.1,35c-0.5-0.6-1.4-0.7-2-0.3c-0.1,0.1-0.2,0.2-0.3,0.3l-4.7,6.8c-1.2,1.7-1.3,4-0.2,5.8
	c2.2,3.3,6.7,4.3,10,2.1c0.8-0.5,1.5-1.2,2.1-2.1c1.1-1.8,1-4.1-0.2-5.8L36.1,35z M38.7,46.1L38.7,46.1c-1.4,2.1-4.2,2.6-6.2,1.2
	c-0.5-0.3-0.9-0.7-1.2-1.2c-0.5-0.9-0.5-2,0.1-2.8l3.6-5.2l3.6,5.2C39.2,44.1,39.2,45.2,38.7,46.1z"/>
<path class="st1" d="M35,30.3c-6.8,0-12.3,5.5-12.3,12.3C22.7,49.4,28.2,55,35,55c6.8,0,12.3-5.5,12.3-12.3
	C47.3,35.8,41.8,30.3,35,30.3z M35,52.2c-5.3,0-9.5-4.3-9.5-9.6c0-5.3,4.3-9.6,9.5-9.6c5.3,0,9.5,4.3,9.5,9.6
	C44.5,47.9,40.3,52.2,35,52.2z"/>
</svg>
