<?xml version="1.0" encoding="utf-8"?>
<!-- Generator: Adobe Illustrator 21.0.0, SVG Export Plug-In . SVG Version: 6.00 Build 0)  -->
<svg version="1.1" id="Слой_1" xmlns="http://www.w3.org/2000/svg" xmlns:xlink="http://www.w3.org/1999/xlink" x="0px" y="0px"
	 viewBox="0 0 90 90" style="enable-background:new 0 0 90 90;" xml:space="preserve">
<style type="text/css">
	.st0{fill:#FFFFFF;}
	.st1{fill:none;}
	.st2{fill:#FF9001;}
</style>
<g>
	<g>
		<path class="st0" d="M83.3,52.4C81.2,50.5,80,47.8,80,45s1.2-5.5,3.3-7.4l1.8-1.7c0.5-0.5,0.7-1.2,0.4-1.8L81.3,24
			c-0.3-0.6-0.9-1-1.5-1l-2.5,0.1c-2.8,0.1-5.5-0.9-7.5-2.9s-3-4.7-2.9-7.5l0.1-2.5c0-0.7-0.4-1.3-1-1.5L55.8,4.5
			c-0.6-0.3-1.3-0.1-1.8,0.4l-1.7,1.8C50.5,8.8,47.8,10,45,10s-5.5-1.2-7.4-3.3L36,4.9c-0.5-0.5-1.2-0.7-1.8-0.4L24,8.7
			c-0.6,0.3-1,0.9-1,1.5l0.1,2.5c0.1,2.8-0.9,5.5-2.9,7.5s-4.7,3-7.5,2.9L10.3,23c-0.7,0-1.3,0.4-1.5,1L4.5,34.2
			c-0.3,0.6-0.1,1.3,0.4,1.8l1.8,1.7C8.8,39.5,10,42.2,10,45s-1.2,5.5-3.3,7.4L4.9,54c-0.5,0.5-0.7,1.2-0.4,1.8L8.7,66
			c0.3,0.6,0.9,1,1.5,1l2.5-0.1c2.8-0.1,5.5,0.9,7.5,2.9s3,4.7,2.9,7.5L23,79.7c0,0.7,0.4,1.3,1,1.5l10.2,4.2
			c0.6,0.3,1.3,0.1,1.8-0.4l1.7-1.8c1.9-2.1,4.6-3.3,7.4-3.3c2.8,0,5.5,1.2,7.4,3.3l1.7,1.8c0.3,0.3,0.7,0.5,1.2,0.5
			c0.2,0,0.4,0,0.6-0.1l10-4.1c0.6-0.3,1-0.9,1-1.5l-0.1-2.5c-0.1-2.8,0.9-5.5,2.9-7.5s4.7-3,7.5-2.9l2.5,0.1c0.7,0,1.3-0.4,1.5-1
			l4.2-10.2c0.3-0.6,0.1-1.3-0.4-1.8L83.3,52.4z M78.8,63.8l-1.3-0.1c-3.7-0.2-7.3,1.2-9.9,3.8s-4,6.2-3.8,9.9l0.1,1.3l-8.2,3.4
			l-0.9-1c-2.5-2.7-6-4.3-9.7-4.3s-7.2,1.6-9.7,4.3l-0.9,1l-8.2-3.4l0.1-1.3c0.2-3.7-1.2-7.3-3.8-9.9s-6.2-4-9.9-3.8l-1.3,0.1
			L8,55.6l1-0.9c2.7-2.5,4.3-6,4.3-9.7s-1.6-7.2-4.3-9.7l-1-0.9l3.4-8.2l1.3,0.1c3.7,0.2,7.3-1.2,9.9-3.8s4-6.2,3.8-9.9l-0.1-1.3
			l8.2-3.4l0.9,1c2.5,2.7,6,4.3,9.7,4.3s7.2-1.6,9.7-4.3l0.9-1l8.2,3.4l-0.1,1.3c-0.2,3.7,1.2,7.3,3.8,9.9c2.6,2.6,6.2,4,9.9,3.8
			l1.3-0.1l3.4,8.2l-1,0.9c-2.7,2.5-4.3,6-4.3,9.7s1.6,7.2,4.3,9.7l1,0.9L78.8,63.8z"/>
	</g>
	<path class="st1" d="M44.5,26.5c-7.7,0-14,6.3-14,14.1c0,2.6,0.7,5.2,2.1,7.4l11.1,18c0.2,0.3,0.6,0.6,1,0.6c0,0,0,0,0,0
		c0.4,0,0.8-0.2,1-0.6l10.8-18.2c1.3-2.2,2-4.7,2-7.2C58.5,32.8,52.2,26.5,44.5,26.5z M54.5,46.6l-9.8,16.5L34.6,46.7
		c-1.1-1.8-1.8-4-1.8-6.2c0-6.5,5.2-11.7,11.7-11.7s11.7,5.3,11.7,11.7C56.2,42.7,55.6,44.8,54.5,46.6z"/>
</g>
<g>
	<g>
		<path class="st2" d="M44.5,33.5c-3.9,0-7,3.2-7,7c0,3.9,3.1,7,7,7c4,0,7-3.2,7-7C51.5,36.7,48.4,33.5,44.5,33.5z M44.5,45.3
			c-2.6,0-4.7-2.1-4.7-4.7c0-2.6,2.1-4.7,4.7-4.7c2.6,0,4.7,2.1,4.7,4.7C49.2,43.1,47.1,45.3,44.5,45.3z"/>
	</g>
</g>
</svg>
