<?xml version="1.0" encoding="utf-8"?>
<!-- Generator: Adobe Illustrator 21.0.0, SVG Export Plug-In . SVG Version: 6.00 Build 0)  -->
<svg version="1.1" id="Слой_1" xmlns="http://www.w3.org/2000/svg" xmlns:xlink="http://www.w3.org/1999/xlink" x="0px" y="0px"
	 viewBox="0 0 90 90" style="enable-background:new 0 0 90 90;" xml:space="preserve">
<style type="text/css">
	.st0{fill-rule:evenodd;clip-rule:evenodd;fill:#FFFFFF;}
	.st1{fill-rule:evenodd;clip-rule:evenodd;fill:#FF9001;}
</style>
<g>
	<g>
		<path class="st0" d="M72.2,38.4c3.8,0,6.8,3.1,6.8,6.8v8.2h2.7v-8.2c0-5.3-4.3-9.6-9.5-9.6V38.4z M87.2,31.6v-1.1H53.5V2.9
			c-0.1,0-0.3-0.1-0.4-0.1h-5.5c-0.8,0-1.4,0.6-1.4,1.4v1.4H10.8V4.2c0-0.8-0.6-1.4-1.4-1.4H4c-0.8,0-1.4,0.6-1.4,1.4v27.4
			C2.7,32.4,3.3,33,4,33h16c-3.6,2.5-5.9,6.5-6.3,11H4c-0.8,0-1.4,0.6-1.4,1.4v41.1c0,0.8,0.6,1.4,1.4,1.4h5.5
			c0.8,0,1.4-0.6,1.4-1.4v-26h2.8c0.6,6.7,5.6,12.2,12.2,13.4v5.7h-4.1c-0.8,0-1.4,0.6-1.4,1.4v5.5c0,0.8,0.6,1.4,1.4,1.4H79
			c0.8,0,1.4-0.6,1.4-1.4v-5.5c0-0.8-0.6-1.4-1.4-1.4h-4.1v-5.7C82,72.5,87.2,66.2,87.2,59V45.3c0-4.9-2.4-9.5-6.4-12.3h5
			C86.6,33,87.2,32.4,87.2,31.6z M8.1,30.2H5.4V11.1h2.7V30.2z M8.1,8.3H5.4V5.6h2.7V8.3z M8.1,85H5.4v-2.7h2.7V85z M8.1,79.5H5.4
			V52.1h2.7V79.5z M8.1,49.4H5.4v-2.7h2.7V49.4z M13.6,57.6h-2.7v-11h2.7V57.6z M49,5.6h2.7v2.7H49V5.6z M49,11.1h2.7v19.2H49V11.1z
			 M66.7,74.1v5.5H34v-5.5H66.7z M46.3,41.2v2.7h-8.2v-2.7H46.3z M38.1,38.4V33h8.2v5.5H38.1z M46.3,46.7v2.7h-8.2v-2.7H46.3z
			 M46.3,52.1v2.7h-8.2v-2.7H46.3z M46.3,57.6v2.7h-8.2v-2.7H46.3z M46.3,63.1v2.7h-8.2v-2.7H46.3z M46.3,68.6v2.7h-8.2v-2.7H46.3z
			 M10.8,8.3h35.5v5.5H10.8V8.3z M10.8,16.5h35.5V22H10.8V16.5z M10.8,30.2v-5.5h35.5v5.5H10.8z M16.3,59V45.3
			c0-6.8,5.5-12.3,12.3-12.3h6.8v38.3h-6.8C21.8,71.3,16.3,65.8,16.3,59z M31.3,74.1v5.5h-2.7v-5.5H31.3z M77.7,82.3V85H23.1v-2.7
			H77.7z M69.5,79.5v-5.5h2.7v5.5H69.5z M84.5,45.3V59c0,6.8-5.5,12.3-12.3,12.3H49V33h23.2C79,33,84.5,38.5,84.5,45.3z"/>
	</g>
</g>
<g>
	<g>
		<path class="st1" d="M82.5,15v-1.6c0-1.7-1.1-3.3-2.7-3.9V5.2c0-0.8-0.6-1.4-1.4-1.4H62c-0.8,0-1.4,0.6-1.4,1.4v4.4
			c-1.6,0.6-2.7,2.1-2.7,3.9V15c-1.6,0.6-2.7,2.1-2.7,3.9v11.6h2.7V23h8.2v7.5h2.7V18.9c0-1.7-1.1-3.3-2.7-3.9v-1.6
			c0-1.7-1.1-3.3-2.7-3.9v-3H77v3c-1.6,0.6-2.7,2.1-2.7,3.9V15c-1.6,0.6-2.7,2.1-2.7,3.9v11.6h2.7V23h8.2v7.5h2.7V18.9
			C85.2,17.2,84.1,15.6,82.5,15z M60.7,13.4c0-0.8,0.6-1.4,1.4-1.4s1.4,0.6,1.4,1.4v1.4h-2.7V13.4z M64.7,17.5
			c0.8,0,1.4,0.6,1.4,1.4v1.4h-8.2v-1.4c0-0.8,0.6-1.4,1.4-1.4H64.7z M77,13.4c0-0.8,0.6-1.4,1.4-1.4c0.8,0,1.4,0.6,1.4,1.4v1.4H77
			V13.4z M82.5,20.3h-8.2v-1.4c0-0.8,0.6-1.4,1.4-1.4h5.5c0.8,0,1.4,0.6,1.4,1.4V20.3z"/>
	</g>
</g>
</svg>
