<?xml version="1.0" encoding="utf-8"?>
<!-- Generator: Adobe Illustrator 21.0.0, SVG Export Plug-In . SVG Version: 6.00 Build 0)  -->
<svg version="1.1" id="Слой_1" xmlns="http://www.w3.org/2000/svg" xmlns:xlink="http://www.w3.org/1999/xlink" x="0px" y="0px"
	 viewBox="0 0 90 90" style="enable-background:new 0 0 90 90;" xml:space="preserve">
<style type="text/css">
	.st0{fill-rule:evenodd;clip-rule:evenodd;fill:#FFFFFF;}
	.st1{fill-rule:evenodd;clip-rule:evenodd;fill:#FF9001;}
</style>
<g>
	<g>
		<path class="st0" d="M84.3,88.8H87V86h-2.7V88.8z M67.9,39.4h2.7v-2.7h-2.7V39.4z M73.4,39.4h2.7v-2.7h-2.7V39.4z M87,34v-2.7
			H59.8V34h2.7v12.3h-2.7V49h2.7v12.3h-4v0.1h-23v-0.1h-1L13.4,36.1c-0.3-2.8-2.6-4.9-5.4-4.9c-3,0-5.5,2.5-5.5,5.5
			c0,2.5,1.7,4.7,4.1,5.3v44H2.5v2.7h79.1V86h-2.7V72.3H87v-11h-2.7V49H87v-2.7h-2.7V34H87z M65.2,34h16.4v12.3H65.2V34z M65.2,49
			h16.4v12.3H65.2V49z M30.9,61.4H25l-1.9-2.7h5.5L30.9,61.4z M22.3,51l4.1,4.9h-5.1L20.7,55L22.3,51z M20.3,48.6l-1.4,3.6l-5-7.2
			l5.3,2.3L20.3,48.6z M12.6,39.5l2.6,3.2L11.3,41C11.8,40.6,12.3,40.1,12.6,39.5z M5.2,36.7C5.2,35.2,6.5,34,8,34
			c1.5,0,2.7,1.2,2.7,2.7c0,1.5-1.2,2.7-2.7,2.7C6.5,39.4,5.2,38.2,5.2,36.7z M20.2,86H9.3V43.2l8.3,12.1l0,0l0,0l4.1,6H12v11h8.2
			V86z M33.9,80.5h-1.4v2.7h1.4V86H23v-2.7h6.8v-2.7H23v-8.2h10.9V80.5z M62.5,86H36.6V72.3h25.9V86z M76.1,80.5h-1.4v2.7h1.4V86
			H65.2v-2.7H72v-2.7h-6.8v-8.2h10.9V80.5z M84.3,69.6H14.8v-5.5h69.5V69.6z M76.1,58.6h2.7v-2.7h-2.7V58.6z M70.7,58.6h2.7v-2.7
			h-2.7V58.6z"/>
	</g>
</g>
<g>
	<g>
		<path class="st1" d="M36.8,61.5h2.7l1.1-10.9l10.8,10.9h3.9L44,50h10.3l1.2,11.5h2.7l-5.1-48.4h2.6V4.8H39.3v8.2h2.6L36.8,61.5z
			 M41,47.3l1.1-10.2l9.1,10.2H41z M43.9,19.9l0.7-6.8h5.7l0.7,6.8H43.9z M51.4,22.6l0.9,9l-6.3-9H51.4z M50.3,33.6h-7.9l1-9.8
			L50.3,33.6z M53.8,46.1l-8.7-9.7h7.7L53.8,46.1z M42,7.6H53v2.7H42V7.6z"/>
	</g>
</g>
</svg>
