<?xml version="1.0" encoding="utf-8"?>
<!-- Generator: Adobe Illustrator 21.0.0, SVG Export Plug-In . SVG Version: 6.00 Build 0)  -->
<svg version="1.1" id="Слой_1" xmlns="http://www.w3.org/2000/svg" xmlns:xlink="http://www.w3.org/1999/xlink" x="0px" y="0px"
	 viewBox="0 0 90 90" style="enable-background:new 0 0 90 90;" xml:space="preserve">
<style type="text/css">
	.st0{fill-rule:evenodd;clip-rule:evenodd;fill:#FFFFFF;}
	.st1{fill-rule:evenodd;clip-rule:evenodd;fill:#FF9001;}
</style>
<g>
	<g>
		<path class="st0" d="M69.1,65.1h-6.8c6.7-13.9,0.8-30.7-13.2-37.4c-0.5-0.2-1-0.5-1.5-0.7v-6.1c0-0.7-0.6-1.3-1.3-1.3H45v-4
			c0-0.4-0.2-0.8-0.5-1h-15c-0.3,0.2-0.5,0.6-0.5,1v4h-1.3c-0.7,0-1.3,0.6-1.3,1.3v6.1c-1.9,0.8-3.7,1.8-5.4,2.9v-2.4h-2.7v4.5
			c-9.3,8.3-12,21.7-6.6,32.9H4.8c-0.7,0-1.3,0.6-1.3,1.3v18.7c0,0.7,0.6,1.3,1.3,1.3h5.4c0.7,0,1.3-0.6,1.3-1.3v-12h5.8
			c1.6,1.5,3.3,2.9,5.2,4h-0.3v8c0,0.7,0.6,1.3,1.3,1.3h26.8c0.7,0,1.3-0.6,1.3-1.3v-8h-0.3c1.9-1.1,3.7-2.5,5.2-4h5.8v12
			c0,0.7,0.6,1.3,1.3,1.3h5.4c0.7,0,1.3-0.6,1.3-1.3V66.4C70.4,65.7,69.8,65.1,69.1,65.1z M62.4,53c0,0.7,0,1.4-0.1,2L34.9,27.7
			c0.7-0.1,1.3-0.1,2-0.1c0.8,0,1.5,0,2.2,0.1l23.1,23.1C62.4,51.5,62.4,52.3,62.4,53z M45,28.9c8,2.7,14.1,9.1,16.4,17.2L43.8,28.6
			C44.2,28.7,44.6,28.8,45,28.9L45,28.9L45,28.9z M31.6,16.9h10.7v2.7H31.6V16.9z M28.9,22.2H45v3.9c-2.6-0.8-5.3-1.2-8-1.2
			c-2.7,0-5.4,0.4-8,1.2V22.2z M20.9,33.3c1.6-1.3,3.4-2.5,5.4-3.3v5.6h-5.4V33.3z M20.9,38.3h5.4V41h-5.4V38.3z M20.9,43.7h5.4v2.7
			h-5.4V43.7z M20.9,49h5.4v2.7h-5.4V49z M20.9,54.4h5.4V57h-5.4V54.4z M20.9,59.7h5.4v2.7h-5.4V59.7z M8.9,83.8H6.2v-2.7h2.7V83.8z
			 M10.2,70.4c-0.7,0-1.3,0.6-1.3,1.3v6.7H6.2V67.8h6.9c0.6,0.9,1.2,1.8,1.9,2.7H10.2z M49,83.8H24.9v-5.4c7.6,3.7,16.5,3.7,24.1,0
			V83.8z M37,78.5c-14,0-25.4-11.3-25.4-25.3c0-6.4,2.4-12.5,6.7-17.2v31.9h2.7v-2.7h5.4v2.7h2.7V28.9c0.9-0.3,1.8-0.5,2.7-0.7
			l30.2,30.2C59.3,70.1,48.9,78.5,37,78.5z M67.8,83.8h-2.7v-2.7h2.7V83.8z M67.8,78.5h-2.7v-6.7c0-0.7-0.6-1.3-1.3-1.3H59
			c0.7-0.9,1.3-1.7,1.9-2.7h6.9V78.5z"/>
	</g>
</g>
<g>
	<g>
		<path class="st1" d="M85.2,78.5h-4v-21c4.7-2.2,6.7-7.8,4.5-12.5c-0.9-2-2.5-3.5-4.5-4.5V12.9c0-5.2-4.2-9.4-9.4-9.4H42.3
			c-5.2,0-9.4,4.2-9.4,9.4v0.6h2.7v-0.6c0-3.7,3-6.7,6.7-6.7h29.5c3.7,0,6.7,3,6.7,6.7v26.9c-0.9-0.1-1.8-0.1-2.7,0V12.9
			c0-2.2-1.8-4-4-4H42.3c-2.2,0-4,1.8-4,4v0.6H41v-0.6c0-0.7,0.6-1.3,1.3-1.3h29.5c0.7,0,1.3,0.6,1.3,1.3v27.7
			c-4.7,2.2-6.7,7.8-4.5,12.5c0.3,0.7,0.8,1.4,1.3,2c0.4,0.2,0.7,0.5,1,1c0.7,0.6,1.4,1.1,2.2,1.5v27.7c0,0.7,0.6,1.3,1.3,1.3h10.7
			c0.7,0,1.3-0.6,1.3-1.3v-5.4C86.5,79.1,85.9,78.5,85.2,78.5z M78.5,55.6v-2.8c1.1-0.4,2-1.3,2.4-2.4h2.8
			C83.1,53,81.1,55,78.5,55.6z M78.5,42.5c2.6,0.5,4.7,2.6,5.2,5.2h-2.8c-0.4-1.1-1.3-2-2.4-2.4V42.5z M77.1,47.7
			c0.7,0,1.3,0.6,1.3,1.3c0,0.7-0.6,1.3-1.3,1.3s-1.3-0.6-1.3-1.3C75.8,48.3,76.4,47.7,77.1,47.7z M78.5,58.3v20.2h-2.7V58.3
			c0.4,0.1,0.9,0.1,1.3,0.1C77.6,58.4,78,58.3,78.5,58.3z M75.8,42.5v2.8c-1.1,0.4-2,1.3-2.4,2.4h-2.8C71.1,45.1,73.2,43,75.8,42.5z
			 M70.6,50.4h2.8c0.4,1.1,1.3,2,2.4,2.4v2.8C73.2,55,71.1,53,70.6,50.4z M83.8,83.8h-8v-2.7h8V83.8z"/>
	</g>
</g>
</svg>
