<?xml version="1.0" encoding="utf-8"?>
<!-- Generator: Adobe Illustrator 21.0.0, SVG Export Plug-In . SVG Version: 6.00 Build 0)  -->
<svg version="1.1" id="Слой_1" xmlns="http://www.w3.org/2000/svg" xmlns:xlink="http://www.w3.org/1999/xlink" x="0px" y="0px"
	 viewBox="0 0 90 90" style="enable-background:new 0 0 90 90;" xml:space="preserve">
<style type="text/css">
	.st0{fill-rule:evenodd;clip-rule:evenodd;fill:#FFFFFF;}
	.st1{fill-rule:evenodd;clip-rule:evenodd;fill:#FF9001;}
</style>
<g>
	<g>
		<path class="st0" d="M81.1,67.8h-5.4v2.7h5.4V67.8z M67.8,67.8h-5.4v2.7h5.4V67.8z M77.5,62.5L77.5,62.5l-1.7-0.1v-6.7
			c0-2.2-1.8-4-4-4h-6.7V49h2.7v-2.7h-2.7v-2.7h2.7V41h-2.7v-2.7h0.4v-2.7h-0.4V33h0.4v-2.7h-0.4v-2.7h2.7v-2.7h-2.7v-2.7h2.7v-2.7
			h-2.7c0-5.4-4-9.9-9.4-10.6V7.5c0-2.2-1.8-4-4-4H33c-2.2,0-4,1.8-4,4v1.4c-2.1,0.3-4.1,1.2-5.7,2.6h-7.7c-2.2,0-4,1.8-4,4v16.1
			c0,2.2,1.8,4,4,4h4V41h-2.7v2.7h2.7v2.7h-2.7V49h2.7v2.7c-9.1,0.7-16,8.3-16.1,17.3v16.1c0,0.7,0.6,1.3,1.3,1.3h80.3
			c0.7,0,1.3-0.6,1.3-1.3V62.5H77.5z M65.1,54.4h6.7c0.7,0,1.3,0.6,1.3,1.3v6.7h-8V54.4z M62.4,19.6H46.3c0-4.4,3.6-8,8-8
			C58.8,11.5,62.4,15.1,62.4,19.6z M46.3,46.3v-2.7h16.1v2.7H46.3z M62.4,49v13.4H46.3V49H62.4z M46.3,41V27.6h16.1V41H46.3z
			 M46.3,24.9v-2.7h16.1v2.7H46.3z M31.6,7.5c0-0.7,0.6-1.3,1.3-1.3h18.7c0.7,0,1.3,0.6,1.3,1.3v1.4c-5.3,0.7-9.4,5.2-9.4,10.6H41
			c0-5.4-4-9.9-9.4-10.6V7.5z M41,46.3v-2.7h2.7v2.7H41z M43.7,49v13.4H41V49H43.7z M41,41V27.6h2.7V41H41z M41,24.9v-2.7h2.7v2.7
			H41z M30.3,11.5c4.4,0,8,3.6,8,8H22.2C22.2,15.1,25.8,11.5,30.3,11.5z M22.2,22.2h16.1v2.7H22.2V22.2z M22.2,27.6h16.1V41H22.2
			V27.6z M22.2,43.7h16.1v2.7H22.2V43.7z M22.2,49h16.1v13.4H22.2V49z M15.5,33c-0.7,0-1.3-0.6-1.3-1.3V15.5c0-0.7,0.6-1.3,1.3-1.3
			H21c-0.9,1.6-1.4,3.5-1.4,5.4h-2.7v2.7h2.7v2.7h-2.7v2.7h2.7V33H15.5z M57,65.1v2.7H19.6v-2.7H57z M57,70.4v8H46.3v-8H57z
			 M43.7,70.4v8H41v-8H43.7z M38.3,70.4v8H22.2v-8H38.3z M6.2,69.1c0-7.6,5.8-14,13.4-14.7v8h-1.3c-0.7,0-1.3,0.6-1.3,1.3v5.4
			c0,0.7,0.6,1.3,1.3,1.3h1.3v8H6.2V69.1z M83.8,83.8H6.2v-2.7h77.6V83.8z M83.8,78.5H59.7V65.1h24.1V78.5z"/>
	</g>
</g>
<g>
	<g>
		<path class="st1" d="M67.8,27.5h-2.3v0.1L67.8,27.5L67.8,27.5z M77.1,30.3H65.5V33h11.6c3.7,0,6.7,3,6.7,6.7v22.8h-2.7V39.6
			c0-2.2-1.8-4-4-4H65.5v2.7h11.6c0.7,0,1.3,0.6,1.3,1.3v22.8h-2v0.1h10V39.6C86.5,34.5,82.3,30.3,77.1,30.3z"/>
	</g>
</g>
</svg>
